<svg width="12" height="12" viewBox="0 0 12 12" fill="none" xmlns="http://www.w3.org/2000/svg">
<path fill-rule="evenodd" clip-rule="evenodd" d="M1.7998 4.35C1.7998 4.19087 1.86302 4.03826 1.97554 3.92574C2.08806 3.81321 2.24067 3.75 2.3998 3.75H9.5998C9.75893 3.75 9.91155 3.81321 10.0241 3.92574C10.1366 4.03826 10.1998 4.19087 10.1998 4.35C10.1998 4.50913 10.1366 4.66174 10.0241 4.77426C9.91155 4.88679 9.75893 4.95 9.5998 4.95H2.3998C2.24067 4.95 2.08806 4.88679 1.97554 4.77426C1.86302 4.66174 1.7998 4.50913 1.7998 4.35ZM1.7998 7.65C1.7998 7.49087 1.86302 7.33826 1.97554 7.22574C2.08806 7.11321 2.24067 7.05 2.3998 7.05H9.5998C9.75893 7.05 9.91155 7.11321 10.0241 7.22574C10.1366 7.33826 10.1998 7.49087 10.1998 7.65C10.1998 7.80913 10.1366 7.96174 10.0241 8.07426C9.91155 8.18679 9.75893 8.25 9.5998 8.25H2.3998C2.24067 8.25 2.08806 8.18679 1.97554 8.07426C1.86302 7.96174 1.7998 7.80913 1.7998 7.65Z" fill="#00B18C"/>
<path fill-rule="evenodd" clip-rule="evenodd" d="M4.69931 1.80239C4.77788 1.80889 4.8544 1.83082 4.92449 1.86691C4.99458 1.90301 5.05687 1.95256 5.1078 2.01274C5.15873 2.07292 5.1973 2.14255 5.22131 2.21764C5.24532 2.29274 5.25429 2.37183 5.24771 2.45039L4.64771 9.65039C4.64113 9.72895 4.61915 9.80544 4.58301 9.8755C4.54686 9.94556 4.49728 10.0078 4.43708 10.0587C4.37688 10.1096 4.30724 10.1481 4.23215 10.1721C4.15705 10.1961 4.07797 10.2051 3.99941 10.1985C3.92086 10.1919 3.84436 10.1699 3.77431 10.1338C3.70425 10.0976 3.64199 10.0481 3.5911 9.98785C3.5402 9.92765 3.50166 9.85802 3.47768 9.78292C3.45369 9.70783 3.44473 9.62875 3.45131 9.55019L4.05131 2.35019C4.0646 2.19162 4.14034 2.04482 4.26186 1.94209C4.38338 1.83935 4.54074 1.7891 4.69931 1.80239ZM7.99931 1.80239C8.07788 1.80889 8.1544 1.83082 8.22449 1.86691C8.29458 1.90301 8.35687 1.95256 8.4078 2.01274C8.45873 2.07292 8.4973 2.14255 8.52131 2.21764C8.54532 2.29274 8.55429 2.37183 8.54771 2.45039L7.94771 9.65039C7.93384 9.8085 7.85788 9.95468 7.73646 10.0569C7.61505 10.1591 7.45808 10.2091 7.29991 10.1958C7.14174 10.1826 6.99527 10.1072 6.89257 9.98619C6.78986 9.86518 6.73928 9.70841 6.75191 9.55019L7.35191 2.35019C7.3652 2.19162 7.44094 2.04482 7.56246 1.94209C7.68398 1.83935 7.84074 1.7891 7.99931 1.80239Z" fill="#00B18C"/>
</svg>
