<svg width="28" height="28" viewBox="0 0 28 28" fill="none" xmlns="http://www.w3.org/2000/svg">
<path d="M12.775 22.8083C13.1639 23.0417 13.5722 23.1537 14 23.1443C14.4278 23.135 14.8361 23.0133 15.225 22.7792L20.5333 19.5417C19.5611 18.8611 18.5208 18.3509 17.4125 18.011C16.3042 17.6711 15.1667 17.5008 14 17.5C12.8333 17.4992 11.6912 17.6696 10.5735 18.011C9.45583 18.3525 8.40078 18.853 7.40833 19.5125L12.775 22.8083ZM14 15.1667C15.1278 15.1667 16.0903 14.7681 16.8875 13.9708C17.6847 13.1736 18.0833 12.2111 18.0833 11.0833C18.0833 9.95557 17.6847 8.99307 16.8875 8.19585C16.0903 7.39862 15.1278 7.00001 14 7.00001C12.8722 7.00001 11.9097 7.39862 11.1125 8.19585C10.3153 8.99307 9.91667 9.95557 9.91667 11.0833C9.91667 12.2111 10.3153 13.1736 11.1125 13.9708C11.9097 14.7681 12.8722 15.1667 14 15.1667ZM12.775 25.5208L4.60833 20.5042C4.25833 20.2903 3.98611 20.0083 3.79167 19.6583C3.59722 19.3083 3.5 18.9292 3.5 18.5208V9.47918C3.5 9.07085 3.59722 8.69168 3.79167 8.34168C3.98611 7.99168 4.25833 7.70974 4.60833 7.49585L12.775 2.47918C13.1639 2.24585 13.5722 2.12918 14 2.12918C14.4278 2.12918 14.8361 2.24585 15.225 2.47918L23.3917 7.49585C23.7417 7.70974 24.0139 7.99168 24.2083 8.34168C24.4028 8.69168 24.5 9.07085 24.5 9.47918V18.5208C24.5 18.9292 24.4028 19.3083 24.2083 19.6583C24.0139 20.0083 23.7417 20.2903 23.3917 20.5042L15.225 25.5208C14.8361 25.7542 14.4278 25.8708 14 25.8708C13.5722 25.8708 13.1639 25.7542 12.775 25.5208Z" fill="#FFFBEB"/>
</svg>
