<svg width="28" height="28" viewBox="0 0 28 28" fill="none" xmlns="http://www.w3.org/2000/svg">
<path d="M12.8335 19.8333H15.1668V12.8333H12.8335V19.8333ZM14.0002 10.5C14.3307 10.5 14.608 10.388 14.832 10.164C15.056 9.94001 15.1676 9.66312 15.1668 9.33334C15.1661 9.00357 15.0541 8.72668 14.8308 8.50268C14.6076 8.27868 14.3307 8.16668 14.0002 8.16668C13.6696 8.16668 13.3927 8.27868 13.1695 8.50268C12.9463 8.72668 12.8343 9.00357 12.8335 9.33334C12.8327 9.66312 12.9447 9.9404 13.1695 10.1652C13.3943 10.39 13.6712 10.5016 14.0002 10.5ZM14.0002 25.6667C12.3863 25.6667 10.8696 25.3602 9.45016 24.7473C8.03072 24.1345 6.796 23.3034 5.746 22.2542C4.696 21.205 3.86494 19.9702 3.25283 18.55C2.64072 17.1298 2.33428 15.6131 2.3335 14C2.33272 12.3869 2.63916 10.8702 3.25283 9.45001C3.8665 8.02979 4.69755 6.79507 5.746 5.74584C6.79444 4.69662 8.02916 3.86557 9.45016 3.25268C10.8712 2.63979 12.3878 2.33334 14.0002 2.33334C15.6125 2.33334 17.1292 2.63979 18.5502 3.25268C19.9712 3.86557 21.2059 4.69662 22.2543 5.74584C23.3028 6.79507 24.1342 8.02979 24.7487 9.45001C25.3631 10.8702 25.6692 12.3869 25.6668 14C25.6645 15.6131 25.3581 17.1298 24.7475 18.55C24.1369 19.9702 23.3059 21.205 22.2543 22.2542C21.2028 23.3034 19.9681 24.1348 18.5502 24.7485C17.1323 25.3622 15.6156 25.6682 14.0002 25.6667Z" fill="#FFFBEB"/>
</svg>
