<svg xmlns="http://www.w3.org/2000/svg" width="2559" height="2322" fill="none"><path stroke="#FFFBEB" stroke-miterlimit="10" stroke-width=".81" d="M198.33 1585.12c81.74-47.2 173.13-60.64 259.73-47.85 88.65 13.13 192.36 78.91 308.78 11.69 93.88-54.2 107.57-158.98 132.19-239.85a396.96 396.96 0 0 1 112.75-184.95c56.05-57.03 125.92-119.17 125.92-218.07 0-134.45-108.86-191.34-164.54-261.59-54.38-68.58-88.41-154.49-88.41-248.89C884.75 177.7 1061.4 1 1279.34 1c217.95 0 394.59 176.66 394.59 394.61 0 93.52-30.09 175.26-86.97 247.03-49.61 62.55-166.13 145.73-166.13 263.4 0 110.22 97.83 175.4 164.17 260.35 24.9 31.2 45.06 65.65 60.88 101.72 36.11 82.58 36.3 215.09 146.04 278.42 116.41 67.23 220.13 1.44 308.78-11.69 86.6-12.8 177.98.65 259.72 47.85 188.75 108.96 253.38 350.28 144.43 539.04-108.95 188.75-350.27 253.38-539.02 144.43-81-46.78-136.72-113.69-170.42-198.87-29.39-74.23-43.16-216.7-145.07-275.55-82.15-47.44-171.69-15.39-263.12 3.99-2.82.79-5.65 1.53-8.48 2.22-.83.23-1.67.41-2.5.6a290.9 290.9 0 0 1-12.76 2.92c-3.24.7-6.53 1.34-9.78 2l-3.89.7a396.6 396.6 0 0 1-70.43 6.39c-2.37 0-4.68-.13-7.04-.19a76.5 76.5 0 0 1-3.43-.09c-3.79-.1-7.6-.14-11.35-.37a438.26 438.26 0 0 1-33.8-2.82c-109.38-13.4-217.59-69.46-315.32-13.03-101.9 58.83-115.68 201.31-145.07 275.55-33.7 85.22-89.44 152.07-170.42 198.86-188.75 108.96-430.07 44.29-539.02-144.43-108.95-188.7-44.32-429.98 144.42-538.95l-.02.03Z"/><path stroke="#FFFBEB" stroke-miterlimit="10" stroke-width=".81" d="M261.33 1568.27c79.36-45.82 168.08-58.87 252.16-46.45 86.06 12.75 186.76 76.62 299.78 11.35 91.15-52.63 104.42-154.36 128.33-232.86a384.53 384.53 0 0 1 37.54-89.44 384.7 384.7 0 0 1 71.92-90.12c54.43-55.37 122.26-115.68 122.26-211.7 0-130.55-105.69-185.78-159.75-253.98-52.8-66.58-85.84-150-85.84-241.64 0-211.57 171.5-383.12 383.11-383.12s383.1 171.5 383.1 383.12c0 90.8-29.21 170.16-84.45 239.84C1561.33 714 1448.21 794.75 1448.21 909c0 107 94.99 170.29 159.39 252.76 24.18 30.3 43.75 63.75 59.1 98.77 35.07 80.16 35.25 208.82 141.79 270.31 113.02 65.28 213.72 1.4 299.78-11.34 84.09-12.43 172.8.63 252.15 46.45 183.25 105.78 246 340.09 140.22 523.34-105.78 183.26-340.08 246-523.32 140.22-78.64-45.42-132.75-110.37-165.47-193.07-28.53-72.06-41.91-210.4-140.85-267.52-79.76-46.05-166.68-14.95-255.44 3.87a277.6 277.6 0 0 1-10.67 2.74c-4.1 1.03-8.24 1.97-12.38 2.83-3.15.68-6.34 1.3-9.49 1.94l-3.79.67a383.97 383.97 0 0 1-68.37 6.21c-2.3 0-4.55-.14-6.85-.18-1.12 0-2.25-.04-3.33-.09-3.69-.1-7.38-.14-11.03-.36a422.6 422.6 0 0 1-32.81-2.75c-106.18-13.01-211.24-67.44-306.14-12.65-98.94 57.12-112.3 195.46-140.85 267.52-32.72 82.74-86.82 147.65-165.47 193.07-183.24 105.79-417.54 43-523.31-140.22-105.78-183.21-43.04-417.46 140.2-523.25h.06Z"/><path stroke="#FFFBEB" stroke-miterlimit="10" stroke-width=".81" d="M322.5 1551.91c77.04-44.49 163.18-57.16 244.8-45.1 83.57 12.37 181.33 74.39 291.06 11.01 88.5-51.09 101.4-149.85 124.6-226.07a373.35 373.35 0 0 1 36.44-86.84 373.02 373.02 0 0 1 69.83-87.5c52.84-53.76 118.69-112.32 118.69-205.54 0-126.75-102.61-180.37-155.09-246.58-51.26-64.64-83.34-145.62-83.34-234.6 0-205.41 166.51-371.96 371.95-371.96 205.45 0 371.95 166.5 371.95 371.96 0 88.16-28.36 165.2-81.98 232.86-46.77 58.95-156.59 137.36-156.59 248.28 0 103.88 92.21 165.32 154.75 245.4 23.46 29.41 42.48 61.88 57.38 95.88 34.04 77.84 34.22 202.75 137.67 262.44 109.73 63.37 207.49 1.35 291.05-11.01 81.63-12.07 167.77.61 244.82 45.1 177.9 102.7 238.83 330.18 136.13 508.1-102.7 177.92-330.16 238.85-508.08 136.14-76.35-44.09-128.88-107.16-160.65-187.44-27.7-69.98-40.68-204.27-136.74-259.73-77.44-44.71-161.83-14.52-248.01 3.75-2.67.74-5.33 1.44-8 2.09-.78.23-1.57.4-2.36.58-3.97 1-7.99 1.92-12.01 2.74-3.06.66-6.16 1.27-9.22 1.89l-3.67.65a372.14 372.14 0 0 1-66.38 6.03c-2.24 0-4.42-.13-6.65-.18a84.4 84.4 0 0 1-3.23-.08c-3.59-.09-7.17-.13-10.71-.35a408.56 408.56 0 0 1-31.85-2.67c-103.09-12.62-205.09-65.46-297.2-12.28-96.07 55.47-109.04 189.76-136.75 259.74-31.77 80.32-84.3 143.35-160.65 187.44-177.9 102.7-405.38 41.73-508.08-136.14-102.7-177.87-41.77-405.31 136.13-508.01h-.02Z"/><path stroke="#FFFBEB" stroke-miterlimit="10" stroke-width=".81" d="M381.86 1536.03c74.8-43.2 158.43-55.51 237.7-43.79 81.12 12 176.03 72.22 282.57 10.69 85.91-49.6 98.43-145.49 120.96-219.5a363.1 363.1 0 0 1 35.39-84.31 362.36 362.36 0 0 1 67.8-84.95c51.29-52.19 115.23-109.05 115.23-199.55 0-123.04-99.62-175.11-150.58-239.4-49.76-62.75-80.91-141.38-80.91-227.77 0-199.42 161.65-361.12 361.11-361.12s361.11 161.66 361.11 361.13c0 85.58-27.54 160.38-79.6 226.06-45.4 57.24-152.02 133.36-152.02 241.06 0 100.85 89.52 160.51 150.24 238.25 22.78 28.55 41.24 60.08 55.71 93.09 33.05 75.57 33.22 196.83 133.64 254.79 106.54 61.52 201.45 1.31 282.58-10.69 79.25-11.71 162.89.59 237.69 43.79 172.72 99.71 231.87 320.56 132.16 493.29-99.71 172.73-320.55 231.89-493.27 132.17-74.13-42.81-125.12-104.03-155.97-181.98-26.91-67.93-39.5-198.33-132.76-252.17-75.18-43.41-157.11-14.09-240.79 3.65a317 317 0 0 1-10.05 2.59c-3.87.97-7.77 1.87-11.67 2.68-2.97.63-5.99 1.22-8.96 1.82l-3.56.64a362.92 362.92 0 0 1-64.45 5.86c-2.17 0-4.28-.13-6.45-.17-1.06 0-2.13-.04-3.14-.09-3.48-.08-6.96-.12-10.4-.33a399.62 399.62 0 0 1-30.93-2.59c-100.09-12.26-199.12-63.57-288.56-11.92-93.26 53.84-105.86 184.23-132.76 252.17-30.85 77.98-81.84 139.17-155.97 181.98-172.72 99.71-393.57 40.52-493.27-132.17-99.71-172.69-40.56-393.5 132.16-493.21h.02Z"/><path stroke="#FFFBEB" stroke-miterlimit="10" stroke-width=".81" d="M439.52 1520.61c72.63-41.94 153.82-53.89 230.76-42.52 78.76 11.65 170.92 70.11 274.35 10.39 83.41-48.16 95.57-141.26 117.44-213.11a352.36 352.36 0 0 1 34.35-81.84 351.76 351.76 0 0 1 65.83-82.48c49.8-50.67 111.88-105.87 111.88-193.73 0-119.47-96.73-170.02-146.2-232.43-48.32-60.93-78.56-137.26-78.56-221.14 0-193.62 156.95-350.61 350.6-350.61 193.65 0 350.59 156.95 350.59 350.61 0 83.09-26.73 155.72-77.27 219.5-44.08 55.56-147.6 129.47-147.6 234.02 0 97.93 86.92 155.84 145.86 231.32 22.13 27.72 40.04 58.32 54.09 90.38 32.08 73.37 32.25 191.1 129.75 247.38 103.43 59.73 195.59 1.28 274.35-10.39 76.95-11.37 158.14.59 230.76 42.52 167.7 96.8 225.11 311.23 128.31 478.94-96.8 167.7-311.21 225.12-478.91 128.32-71.97-41.57-121.47-101.02-151.42-176.69-26.11-65.95-38.35-192.54-128.9-244.82-72.99-42.15-152.53-13.67-233.76 3.54a239.72 239.72 0 0 1-9.77 2.52c-3.74.95-7.54 1.81-11.32 2.59-2.89.62-5.81 1.2-8.7 1.77l-3.45.61a351.5 351.5 0 0 1-62.58 5.69c-2.1 0-4.16-.12-6.26-.17-1.03 0-2.06-.04-3.05-.08-3.37-.09-6.75-.13-10.09-.33a381.19 381.19 0 0 1-30.02-2.52c-97.17-11.91-193.31-61.71-280.15-11.58-90.54 52.28-102.78 178.87-128.9 244.82-29.95 75.72-79.46 135.12-151.42 176.69-167.7 96.8-382.1 39.34-478.91-128.32-96.8-167.67-39.39-382.05 128.31-478.85h.01Z"/><path stroke="#FFFBEB" stroke-miterlimit="10" stroke-width=".81" d="M495.49 1505.64c70.5-40.72 149.33-52.31 224.03-41.28 76.47 11.32 165.94 68.07 266.36 10.08 80.98-46.76 92.78-137.14 114.01-206.89a341.32 341.32 0 0 1 33.36-79.47 341.36 341.36 0 0 1 63.91-80.07c48.35-49.19 108.62-102.79 108.62-188.1 0-116-93.9-165.07-141.94-225.66-46.91-59.15-76.27-133.26-76.27-214.7 0-187.98 152.38-340.4 340.38-340.4 188.01 0 340.38 152.39 340.38 340.4 0 80.67-25.95 151.18-75.02 213.1-42.79 53.94-143.29 125.7-143.29 227.2 0 95.07 84.38 151.31 141.62 224.58 21.48 26.92 38.87 56.64 52.5 87.75 31.16 71.23 31.32 185.54 125.98 240.17 100.43 57.99 189.89 1.23 266.35-10.08 74.71-11.04 153.54.56 224.05 41.28 162.81 93.99 218.56 302.16 124.58 464.98s-302.15 218.57-464.96 124.59c-69.86-40.36-117.94-98.06-147.01-171.54-25.36-64.03-37.24-186.93-125.15-237.69-70.86-40.92-148.09-13.27-226.96 3.44-2.44.68-4.88 1.32-7.32 1.93-.72.2-1.44.35-2.16.51-3.64.92-7.32 1.76-11 2.52-2.8.6-5.63 1.16-8.44 1.72l-3.36.61c-19.71 3.56-40 5.52-60.75 5.52-2.04 0-4.04-.12-6.08-.16-1 0-2-.04-2.96-.09-3.28-.08-6.56-.11-9.79-.31a373.74 373.74 0 0 1-29.16-2.45c-94.35-11.56-187.69-59.91-272-11.24-87.9 50.76-99.78 173.66-125.14 237.69-29.07 73.52-77.15 131.19-147.01 171.54-162.82 93.99-370.98 38.19-464.96-124.59-94-162.78-38.24-370.92 124.58-464.9l.02.01Z"/><path stroke="#FFFBEB" stroke-miterlimit="10" stroke-width=".81" d="M549.83 1491.11c68.45-39.53 144.98-50.79 217.5-40.07 74.25 10.98 161.1 66.09 258.61 9.78 78.63-45.39 90.08-133.15 110.69-200.87a331.82 331.82 0 0 1 32.39-77.15 331.13 331.13 0 0 1 62.04-77.73c46.95-47.77 105.46-99.8 105.46-182.62 0-112.61-91.17-160.26-137.8-219.08-45.55-57.43-74.04-129.38-74.04-208.44 0-182.5 147.94-330.49 330.47-330.49 182.54 0 330.47 147.95 330.47 330.5 0 78.3-25.2 146.77-72.84 206.89-41.54 52.38-139.13 122.03-139.13 220.6 0 92.29 81.93 146.89 137.5 218.02 20.85 26.14 37.74 54.99 50.98 85.2 30.25 69.15 30.41 180.13 122.31 233.17 97.5 56.31 184.36 1.21 258.6-9.78 72.53-10.72 149.07.54 217.51 40.07 158.07 91.25 212.19 293.36 120.96 451.44-91.25 158.07-293.35 212.2-451.42 120.96-67.83-39.18-114.5-95.21-142.73-166.55-24.62-62.16-36.15-181.49-121.49-230.76-68.81-39.72-143.78-12.89-220.35 3.34a239.9 239.9 0 0 1-7.1 1.86c-.7.19-1.4.35-2.1.51-3.53.89-7.11 1.71-10.68 2.44-2.72.59-5.48 1.13-8.2 1.68l-3.25.58a331.24 331.24 0 0 1-58.98 5.36c-1.98 0-3.93-.12-5.91-.16-.97 0-1.94-.04-2.87-.07-3.19-.08-6.37-.12-9.52-.31a361.03 361.03 0 0 1-28.3-2.37c-91.6-11.22-182.22-58.17-264.08-10.91-85.34 49.27-96.87 168.59-121.49 230.76-28.23 71.37-74.9 127.36-142.73 166.54-158.07 91.26-360.17 37.08-451.42-120.96-91.24-158.04-37.12-360.11 120.96-451.36l-.02-.02Z"/><path stroke="#FFFBEB" stroke-miterlimit="10" stroke-width=".81" d="M602.59 1477c66.46-38.38 140.76-49.31 211.18-38.91 72.07 10.67 156.4 64.17 251.06 9.5 76.34-44.07 87.46-129.28 107.47-195.02a322.13 322.13 0 0 1 31.45-74.91 321.54 321.54 0 0 1 60.24-75.47c45.57-46.37 102.38-96.89 102.38-177.3 0-109.33-88.51-155.59-133.78-212.7-44.22-55.76-71.9-125.62-71.9-202.37 0-177.18 143.63-320.86 320.85-320.86 177.22 0 320.85 143.64 320.85 320.86 0 76.05-24.47 142.5-70.72 200.87-40.34 50.86-135.08 118.48-135.08 214.17 0 89.61 79.54 142.62 133.49 211.68 20.24 25.37 36.64 53.38 49.49 82.72 29.37 67.14 29.52 174.89 118.75 226.38 94.66 54.67 178.98 1.17 251.07-9.5 70.42-10.4 144.71.53 211.17 38.91 153.47 88.6 206.02 284.82 117.42 438.29-88.59 153.48-284.8 206.03-438.26 117.43-65.86-38.04-111.18-92.43-138.58-161.69-23.9-60.36-35.1-176.21-117.95-224.04-66.8-38.58-139.59-12.52-213.94 3.24-2.29.65-4.6 1.25-6.89 1.81-.68.19-1.36.34-2.03.49-3.43.87-6.9 1.66-10.37 2.38-2.64.56-5.32 1.09-7.95 1.62l-3.16.56a322.38 322.38 0 0 1-57.27 5.2c-1.92 0-3.81-.12-5.73-.15-.94 0-1.88-.04-2.79-.07-3.09-.08-6.19-.12-9.24-.31-9.2-.41-18.36-1.16-27.48-2.29-88.93-10.9-176.91-56.48-256.38-10.6-82.86 47.83-94.05 163.69-117.95 224.05-27.4 69.29-72.72 123.65-138.57 161.69-153.47 88.59-349.68 36-438.27-117.43-88.6-153.44-36.05-349.62 117.42-438.22v-.01Z"/><path stroke="#FFFBEB" stroke-miterlimit="10" stroke-width=".81" d="M653.8 1463.29c64.53-37.26 136.67-47.88 205.04-37.76 69.98 10.35 151.85 62.29 243.75 9.22 74.11-42.79 84.91-125.51 104.34-189.34a313.07 313.07 0 0 1 30.52-72.72 312.54 312.54 0 0 1 58.48-73.27c44.25-45.03 99.41-94.07 99.41-172.14 0-106.14-85.94-151.05-129.9-206.5-42.92-54.13-69.8-121.96-69.8-196.48 0-172.02 139.45-311.51 311.5-311.51 172.06 0 311.5 139.45 311.5 311.51 0 73.83-23.75 138.35-68.66 195.02-39.16 49.37-131.14 115.04-131.14 207.93 0 87 77.23 138.46 129.6 205.51 19.65 24.64 35.58 51.83 48.05 80.31 28.52 65.18 28.67 169.79 115.29 219.79 91.9 53.07 173.77 1.13 243.75-9.23 68.37-10.1 140.51.51 205.03 37.77 149.02 86.01 200.04 276.52 114.03 425.53-86.01 149-276.51 200.02-425.5 114.01-63.95-36.93-107.94-89.75-134.55-156.99-23.2-58.6-34.07-171.07-114.52-217.52-64.85-37.44-135.53-12.15-207.7 3.15-2.23.63-4.46 1.21-6.69 1.76-.66.18-1.33.33-1.98.48-3.33.84-6.7 1.6-10.07 2.3-2.56.55-5.16 1.06-7.72 1.58l-3.08.55a313.2 313.2 0 0 1-55.6 5.05c-1.86 0-3.7-.1-5.56-.15-.92 0-1.83-.03-2.71-.07-3-.07-6-.11-8.96-.3-8.93-.4-17.82-1.13-26.69-2.23-86.34-10.57-171.76-54.82-248.91-10.28-80.45 46.45-91.31 158.92-114.52 217.52-26.61 67.28-70.6 120.06-134.55 156.99-148.99 86.01-339.49 34.95-425.5-114.01-86.01-148.97-34.98-339.45 114-425.46l.03-.02Z"/><path stroke="#FFFBEB" stroke-miterlimit="10" stroke-width=".81" d="M703.53 1450c62.66-36.17 132.69-46.48 199.06-36.67 67.94 10.06 147.43 60.49 236.65 8.96 71.96-41.54 82.44-121.85 101.31-183.83a303.8 303.8 0 0 1 29.63-70.6 303.7 303.7 0 0 1 56.78-71.15c42.96-43.71 96.51-91.33 96.51-167.13 0-103.05-83.43-146.65-126.11-200.49-41.68-52.55-67.76-118.4-67.76-190.75 0-167.02 135.38-302.44 302.43-302.44 167.04 0 302.42 135.39 302.42 302.44 0 71.67-23.06 134.31-66.66 189.33-38.02 47.95-127.32 111.69-127.32 201.88 0 84.46 74.97 134.43 125.82 199.53 19.08 23.92 34.54 50.33 46.66 77.97 27.68 63.29 27.83 164.85 111.93 213.39 89.23 51.53 168.72 1.1 236.66-8.96 66.37-9.8 136.41.5 199.05 36.67 144.66 83.51 194.2 268.47 110.69 413.13-83.51 144.66-268.45 194.2-413.11 110.69-62.08-35.85-104.78-87.13-130.62-152.42-22.53-56.89-33.08-166.08-111.18-211.18-62.97-36.35-131.59-11.79-201.65 3.05-2.17.61-4.34 1.18-6.5 1.71-.64.18-1.28.31-1.92.46-3.24.82-6.5 1.57-9.77 2.24-2.49.53-5.01 1.03-7.5 1.53l-2.98.53a303.74 303.74 0 0 1-53.98 4.9c-1.81 0-3.59-.1-5.4-.13-.89 0-1.78-.04-2.64-.08-2.92-.07-5.83-.1-8.7-.28-8.67-.39-17.3-1.1-25.9-2.17-83.82-10.27-166.76-53.23-241.67-9.99-78.1 45.1-88.65 154.3-111.18 211.19-25.84 65.31-68.54 116.55-130.62 152.42-144.66 83.51-329.6 33.93-413.11-110.7-83.5-144.63-33.97-329.55 110.68-413.05Z"/><path stroke="#FFFBEB" stroke-miterlimit="10" stroke-width=".81" d="M751.82 1437.09c60.82-35.13 128.82-45.13 193.26-35.6 65.97 9.76 143.14 58.72 229.76 8.69 69.87-40.33 80.04-118.31 98.36-178.47a294.95 294.95 0 0 1 28.77-68.56 294.79 294.79 0 0 1 55.13-69.07c41.72-42.44 93.71-88.66 93.71-162.25 0-100.06-81-142.38-122.44-194.65-40.46-51.03-65.79-114.95-65.79-185.2 0-162.16 131.43-293.63 293.61-293.63s293.62 131.44 293.62 293.63c0 69.6-22.39 130.42-64.73 183.82-36.91 46.53-123.61 108.43-123.61 196 0 82 72.8 130.51 122.16 193.71 18.53 23.21 33.54 48.85 45.3 75.69 26.87 61.45 27.01 160.05 108.67 207.18 86.62 50.03 163.79 1.07 229.75-8.69 64.44-9.52 132.44.48 193.27 35.6 140.44 81.08 188.53 260.65 107.46 401.09-81.08 140.45-260.64 188.54-401.08 107.47-60.27-34.81-101.74-84.6-126.81-147.98-21.87-55.24-32.12-161.25-107.95-205.03-61.13-35.29-127.74-11.45-195.78 2.98-2.1.58-4.21 1.14-6.31 1.66-.62.16-1.24.3-1.86.44a236.9 236.9 0 0 1-9.49 2.18c-2.41.52-4.86 1-7.27 1.48l-2.9.52a295.6 295.6 0 0 1-52.41 4.76c-1.75 0-3.47-.11-5.24-.14-.87 0-1.72-.03-2.55-.07-2.82-.08-5.66-.11-8.45-.28-8.42-.38-16.8-1.07-25.15-2.1-81.38-9.98-161.9-51.69-234.62-9.7-75.83 43.78-86.08 149.8-107.95 205.03-25.07 63.41-66.54 113.15-126.81 147.97-140.45 81.08-320.01 32.95-401.08-107.46s-32.98-319.96 107.46-401.03v.01Z"/><path stroke="#FFFBEB" stroke-miterlimit="10" stroke-width=".81" d="M798.7 1424.55c59.04-34.1 125.06-43.8 187.63-34.56 64.04 9.48 138.97 57.01 223.06 8.44 67.83-39.15 77.71-114.86 95.49-173.27a287.14 287.14 0 0 1 27.93-66.56 285.89 285.89 0 0 1 53.53-67.05c40.49-41.2 90.97-86.08 90.97-157.53 0-97.14-78.64-138.24-118.87-188.98-39.29-49.54-63.88-111.61-63.88-179.8 0-157.44 127.61-285.09 285.07-285.09 157.46 0 285.07 127.61 285.07 285.08 0 67.56-21.74 126.61-62.83 178.47-35.84 45.18-120.01 105.27-120.01 190.28 0 79.62 70.67 126.72 118.6 188.08 17.99 22.54 32.55 47.44 43.97 73.49 26.09 59.65 26.23 155.38 105.51 201.13 84.1 48.57 159.03 1.04 223.06-8.44 62.57-9.24 128.58.47 187.64 34.57 136.35 78.72 183.04 253.06 104.33 389.42-78.72 136.35-253.05 183.05-389.4 104.33-58.52-33.8-98.78-82.14-123.13-143.66-21.23-53.62-31.18-156.56-104.8-199.06-59.35-34.27-124.03-11.12-190.08 2.87a190.63 190.63 0 0 1-7.94 2.04c-3.05.78-6.13 1.47-9.21 2.12-2.35.51-4.73.97-7.07 1.44l-2.81.51a286.05 286.05 0 0 1-50.88 4.62c-1.71 0-3.38-.11-5.09-.14-.83 0-1.67-.03-2.47-.06-2.75-.07-5.49-.11-8.21-.27a311.53 311.53 0 0 1-24.42-2.04c-79.01-9.68-157.18-50.17-227.79-9.41-73.62 42.5-83.57 145.43-104.8 199.06-24.35 61.57-64.61 109.87-123.13 143.66-136.35 78.72-310.68 31.99-389.4-104.33-78.71-136.33-32.02-310.64 104.33-389.36h.03Z"/><path stroke="#FFFBEB" stroke-miterlimit="10" stroke-width=".81" d="M844.2 1412.38c57.33-33.1 121.42-42.54 182.17-33.56 62.17 9.2 134.91 55.35 216.57 8.2 65.84-38.01 75.45-111.51 92.71-168.23a278.1 278.1 0 0 1 79.08-129.73c39.31-40 88.32-83.57 88.32-152.94 0-94.3-76.36-134.21-115.4-183.48-38.15-48.1-62.02-108.35-62.02-174.56 0-152.84 123.9-276.77 276.76-276.77 152.86 0 276.75 123.9 276.75 276.77 0 65.6-21.1 122.93-61 173.26-34.79 43.87-116.51 102.21-116.51 184.75 0 77.3 68.62 123.02 115.15 182.6 17.46 21.88 31.61 46.05 42.69 71.35 25.33 57.91 25.47 150.85 102.44 195.27 81.66 47.15 154.39 1.01 216.57-8.19 60.75-8.98 124.84.45 182.17 33.56 132.37 76.42 177.71 245.68 101.29 378.07-76.42 132.38-245.67 177.72-378.05 101.3-56.81-32.81-95.9-79.74-119.54-139.48-20.61-52.07-30.28-152.01-101.75-193.26-57.62-33.28-120.41-10.8-184.53 2.79a217.98 217.98 0 0 1-7.71 1.99c-2.96.75-5.96 1.42-8.95 2.05-2.27.48-4.59.94-6.86 1.39l-2.73.49a277.15 277.15 0 0 1-49.4 4.49c-1.66 0-3.29-.1-4.94-.13-.81 0-1.63-.03-2.41-.07-2.67-.06-5.33-.09-7.96-.26-7.94-.36-15.84-1-23.72-1.99-76.7-9.4-152.6-48.71-221.15-9.14-71.48 41.27-81.14 141.21-101.75 193.26-23.64 59.77-62.73 106.67-119.54 139.48-132.38 76.43-301.64 31.06-378.05-101.3-76.42-132.35-31.1-301.59 101.3-378v.02Z"/><path stroke="#FFFBEB" stroke-miterlimit="10" stroke-width=".81" d="M888.39 1400.56c55.66-32.15 117.89-41.31 176.86-32.59 60.36 8.94 130.99 53.74 210.26 7.95 63.93-36.91 73.25-108.26 90.01-163.33a269.58 269.58 0 0 1 26.34-62.73 269.04 269.04 0 0 1 50.44-63.21c38.17-38.83 85.75-81.14 85.75-148.49 0-91.56-74.12-130.3-112.05-178.13-37.04-46.7-60.21-105.2-60.21-169.49 0-148.4 120.29-268.7 268.7-268.7 148.41 0 268.7 120.29 268.7 268.7 0 63.68-20.49 119.34-59.23 168.22-33.77 42.59-113.11 99.23-113.11 179.36 0 75.05 66.61 119.44 111.79 177.28 16.96 21.25 30.69 44.7 41.46 69.27 24.59 56.24 24.72 146.46 99.44 189.59 79.28 45.79 149.9.99 210.27-7.95 58.97-8.72 121.2.44 176.86 32.58 128.52 74.2 172.53 238.53 98.34 367.06-74.19 128.54-238.51 172.55-367.04 98.35-55.15-31.85-93.1-77.42-116.06-135.42-20.02-50.54-29.39-147.57-98.79-187.63-55.94-32.3-116.9-10.48-179.16 2.72a153.23 153.23 0 0 1-7.48 1.92 194.9 194.9 0 0 1-8.68 1.99c-2.21.48-4.45.92-6.66 1.36l-2.66.47a268.53 268.53 0 0 1-47.96 4.36c-1.6 0-3.19-.1-4.8-.13-.79 0-1.57-.03-2.34-.06-2.59-.06-5.18-.1-7.73-.25-7.7-.35-15.37-.99-23.01-1.93-74.47-9.13-148.17-47.3-214.72-8.87-69.4 40.06-78.77 137.09-98.79 187.63-22.95 58.03-60.9 103.56-116.05 135.42-128.53 74.19-292.86 30.15-367.05-98.35-74.18-128.5-30.18-292.8 98.35-367v.03Z"/><path stroke="#FFFBEB" stroke-miterlimit="10" stroke-width=".81" d="M931.28 1389.09c54.05-31.2 114.45-40.09 171.71-31.63 58.61 8.67 127.17 52.17 204.14 7.72 62.07-35.83 71.12-105.11 87.39-158.57a262.64 262.64 0 0 1 74.54-122.27c37.06-37.71 83.25-78.79 83.25-144.17 0-88.9-71.97-126.5-108.78-172.94-35.96-45.34-58.45-102.14-58.45-164.55 0-144.07 116.77-260.88 260.87-260.88 144.09 0 260.87 116.78 260.87 260.88 0 61.83-19.89 115.87-57.5 163.32-32.79 41.36-109.83 96.34-109.83 174.14 0 72.86 64.67 115.96 108.54 172.12 16.46 20.63 29.79 43.4 40.24 67.25 23.88 54.6 24 142.2 96.56 184.07 76.97 44.45 145.53.95 204.14-7.72 57.26-8.46 117.67.43 171.71 31.63 124.78 72.04 167.51 231.58 95.48 356.37-72.04 124.79-231.57 167.52-356.35 95.48-53.55-30.92-90.39-75.16-112.68-131.47-19.44-49.07-28.53-143.28-95.91-182.17-54.32-31.35-113.5-10.17-173.95 2.64-1.87.52-3.74 1.01-5.6 1.47-.55.15-1.1.27-1.66.4-2.8.71-5.61 1.35-8.43 1.94-2.15.45-4.33.88-6.47 1.32l-2.57.45a261.62 261.62 0 0 1-46.56 4.23c-1.56 0-3.1-.09-4.66-.12-.76 0-1.54-.04-2.27-.07-2.51-.06-5.02-.09-7.51-.24-7.47-.34-14.92-.95-22.34-1.87-72.31-8.87-143.85-45.93-208.46-8.61-67.37 38.9-76.47 133.09-95.91 182.16-22.28 56.34-59.13 100.54-112.68 131.48-124.78 72.03-284.31 29.27-356.34-95.49-72.04-124.75-29.31-284.28 95.47-356.31v.01Z"/><path stroke="#FFFBEB" stroke-miterlimit="10" stroke-width=".81" d="M972.93 1377.95c52.47-30.3 111.12-38.93 166.71-30.71 56.89 8.42 123.47 50.65 198.19 7.5 60.26-34.79 69.03-102.05 84.83-153.95a254.37 254.37 0 0 1 24.83-59.13 254.04 254.04 0 0 1 47.55-59.58c35.98-36.6 80.82-76.48 80.82-139.96 0-86.3-69.87-122.83-105.61-167.91-34.91-44.02-56.74-99.16-56.74-159.76 0-139.87 113.38-253.29 253.27-253.29 139.9 0 253.28 113.4 253.28 253.3 0 60.02-19.31 112.48-55.83 158.55-31.84 40.15-106.62 93.54-106.62 169.08 0 70.74 62.79 112.58 105.37 167.1 15.98 20.03 28.93 42.14 39.08 65.3 23.18 53 23.3 138.06 93.75 178.7 74.72 43.16 141.29.92 198.18-7.49 55.59-8.22 114.24.41 166.71 30.71 121.14 69.94 162.63 224.84 92.7 345.99-69.94 121.15-224.83 162.64-345.98 92.7-51.99-30.02-87.76-72.97-109.39-127.64-18.87-47.65-27.71-139.1-93.12-176.87-52.73-30.45-110.2-9.88-168.89 2.56-1.82.51-3.62.98-5.44 1.43-.54.15-1.07.26-1.61.39a349.35 349.35 0 0 1-14.47 3.15l-2.49.44a254 254 0 0 1-45.21 4.11c-1.52 0-3-.09-4.52-.12-.74 0-1.49-.03-2.2-.06-2.44-.06-4.88-.09-7.29-.24a275.7 275.7 0 0 1-21.69-1.82c-70.2-8.6-139.65-44.58-202.39-8.37-65.41 37.77-74.25 129.22-93.12 176.87-21.63 54.7-57.4 97.61-109.39 127.64-121.15 69.94-276.04 28.42-345.98-92.7-69.93-121.12-28.45-276 92.7-345.93l.01.01Z"/><path stroke="#FFFBEB" stroke-miterlimit="10" stroke-width=".81" d="M1013.36 1367.13c50.93-29.41 107.88-37.78 161.85-29.81 55.24 8.18 119.88 49.18 192.42 7.28 58.5-33.78 67.03-99.08 82.37-149.47a246.81 246.81 0 0 1 24.09-57.41 246.67 246.67 0 0 1 46.18-57.84c34.93-35.53 78.47-74.25 78.47-135.88 0-83.8-67.84-119.25-102.54-163.01-33.9-42.73-55.1-96.28-55.1-155.1 0-135.8 110.08-245.91 245.89-245.91 135.82 0 245.9 110.09 245.9 245.9 0 58.28-18.75 109.23-54.2 153.96-30.91 38.97-103.52 90.8-103.52 164.14 0 68.68 60.96 109.3 102.31 162.24 15.52 19.45 28.08 40.91 37.94 63.39 22.5 51.47 22.62 134.04 91.01 173.51 72.55 41.89 137.18.89 192.42-7.28 53.97-7.98 110.92.4 161.85 29.81 117.62 67.9 157.9 218.3 90 335.92-67.9 117.63-218.28 157.9-335.9 90-50.47-29.15-85.19-70.85-106.2-123.92-18.32-46.26-26.89-135.05-90.4-171.72-51.2-29.56-106.98-9.59-163.97 2.49a205.23 205.23 0 0 1-6.85 1.76c-2.63.67-5.29 1.27-7.94 1.82-2.02.44-4.07.84-6.09 1.24l-2.42.43a246.97 246.97 0 0 1-43.89 3.99c-1.47 0-2.92-.08-4.39-.12-.72 0-1.45-.03-2.14-.05-2.37-.05-4.74-.08-7.07-.23-7.06-.32-14.07-.9-21.07-1.77-68.16-8.35-135.59-43.28-196.5-8.12-63.51 36.67-72.08 125.46-90.4 171.72-21 53.1-55.73 94.77-106.2 123.92-117.62 67.9-268 27.59-335.9-90.01-67.9-117.59-27.62-267.96 90-335.86l-.01-.01Z"/><path stroke="#FFFBEB" stroke-miterlimit="10" stroke-width=".81" d="M1052.62 1356.63c49.45-28.55 104.74-36.69 157.13-28.95 53.63 7.95 116.39 47.75 186.82 7.07 56.81-32.8 65.08-96.19 79.98-145.12a239.43 239.43 0 0 1 23.39-55.73 239.46 239.46 0 0 1 44.82-56.16c33.92-34.5 76.19-72.1 76.19-131.93 0-81.35-65.87-115.77-99.55-158.26-32.9-41.5-53.49-93.48-53.49-150.59 0-131.84 106.86-238.75 238.73-238.75s238.74 106.88 238.74 238.75c0 56.58-18.2 106.04-52.62 149.46-30.02 37.85-100.51 88.17-100.51 159.37 0 66.68 59.19 106.12 99.33 157.51 15.06 18.88 27.27 39.72 36.84 61.54 21.85 49.96 21.96 130.13 88.36 168.45 70.43 40.68 133.18.87 186.82-7.06 52.4-7.75 107.68.39 157.13 28.94 114.2 65.92 153.3 211.93 87.38 326.13-65.92 114.2-211.92 153.3-326.12 87.38-49-28.3-82.72-68.79-103.11-120.31-17.79-44.91-26.11-131.12-87.77-166.72-49.7-28.69-103.87-9.31-159.18 2.42a176.82 176.82 0 0 1-6.64 1.7 168.6 168.6 0 0 1-7.71 1.76c-1.97.43-3.96.82-5.93 1.21l-2.35.42a239.3 239.3 0 0 1-42.61 3.87c-1.43 0-2.84-.08-4.27-.11-.69 0-1.4-.03-2.07-.06-2.29-.05-4.6-.08-6.87-.22-6.85-.3-13.67-.86-20.46-1.71-66.17-8.11-131.63-42.02-190.77-7.88-61.66 35.6-69.99 121.8-87.77 166.71-20.39 51.56-54.11 92.02-103.11 120.32-114.2 65.92-260.2 26.79-326.12-87.38-65.92-114.17-26.82-260.16 87.38-326.08l-.01.01Z"/><path stroke="#FFFBEB" stroke-miterlimit="10" stroke-width=".81" d="M1090.73 1346.44c48.02-27.72 101.69-35.62 152.57-28.1 52.07 7.71 112.99 46.35 181.37 6.86 55.16-31.83 63.18-93.39 77.65-140.89a232.58 232.58 0 0 1 22.72-54.12 232.4 232.4 0 0 1 43.52-54.52c32.92-33.49 73.96-69.99 73.96-128.09 0-78.98-63.94-112.39-96.65-153.66-31.95-40.28-51.94-90.74-51.94-146.2 0-128 103.76-231.8 231.79-231.8 128.03 0 231.79 103.77 231.79 231.8 0 54.94-17.67 102.96-51.09 145.11-29.14 36.75-97.58 85.6-97.58 154.72 0 64.74 57.45 103.04 96.43 152.93 14.62 18.32 26.47 38.56 35.75 59.75 21.22 48.5 21.32 126.34 85.79 163.54 68.39 39.49 129.3.85 181.38-6.86 50.87-7.52 104.55.38 152.56 28.1 110.87 64 148.83 205.76 84.83 316.63-63.99 110.87-205.75 148.84-316.62 84.83-47.58-27.47-80.31-66.78-100.11-116.81-17.27-43.61-25.35-127.3-85.2-161.86-48.26-27.86-100.85-9.04-154.56 2.34-1.66.46-3.32.9-4.98 1.31-.49.14-.98.24-1.47.35-2.47.62-4.98 1.19-7.49 1.71-1.9.41-3.84.79-5.74 1.17l-2.28.42a233.11 233.11 0 0 1-41.38 3.75c-1.38 0-2.75-.08-4.13-.1-.68 0-1.37-.04-2.02-.06-2.23-.05-4.46-.08-6.67-.22-6.65-.3-13.27-.85-19.86-1.66-64.24-7.87-127.8-40.79-185.21-7.66-59.86 34.57-67.95 118.26-85.21 161.86-19.79 50.06-52.53 89.33-100.11 116.82-110.86 63.99-252.61 26-316.61-84.84-64-110.85-26.04-252.57 84.82-316.57l-.02.02Z"/><path stroke="#FFFBEB" stroke-miterlimit="10" stroke-width=".81" d="M1127.74 1336.55c46.62-26.92 98.72-34.59 148.11-27.29 50.55 7.49 109.7 45 176.1 6.66 53.54-30.91 61.34-90.67 75.38-136.78a226.43 226.43 0 0 1 64.3-105.48c31.97-32.52 71.81-67.95 71.81-124.35 0-76.68-62.08-109.13-93.84-149.18-31.02-39.11-50.42-88.1-50.42-141.93 0-124.27 100.73-225.04 225.03-225.04 124.29 0 225.03 100.73 225.03 225.04 0 53.33-17.17 99.94-49.6 140.87-28.29 35.68-94.74 83.11-94.74 150.22 0 62.85 55.79 100.03 93.63 148.47 14.2 17.8 25.7 37.44 34.72 58.01 20.6 47.09 20.71 122.66 83.28 158.78 66.4 38.34 125.54.82 176.1-6.66 49.39-7.3 101.5.37 148.11 27.28 107.64 62.14 144.5 199.77 82.37 307.41-62.14 107.65-199.76 144.51-307.4 82.37-46.19-26.68-77.97-64.83-97.19-113.41-16.76-42.34-24.62-123.58-82.73-157.14-46.85-27.06-97.91-8.78-150.05 2.27-1.62.46-3.23.87-4.85 1.27-.47.13-.95.23-1.42.35-2.41.61-4.85 1.16-7.28 1.67-1.85.39-3.73.77-5.58 1.14l-2.22.4a226.14 226.14 0 0 1-40.17 3.64c-1.35 0-2.68-.07-4.02-.1-.67 0-1.32-.03-1.96-.05-2.16-.06-4.33-.08-6.48-.22a243.6 243.6 0 0 1-19.28-1.61c-62.37-7.65-124.08-39.61-179.82-7.44-58.11 33.56-65.97 114.81-82.73 157.14-19.23 48.6-51.01 86.73-97.19 113.41-107.64 62.14-245.26 25.26-307.4-82.37-62.13-107.61-25.27-245.22 82.37-307.35h.03Z"/><path stroke="#FFFBEB" stroke-miterlimit="10" stroke-width=".81" d="M1163.66 1326.93c45.26-26.13 95.85-33.58 143.81-26.49 49.08 7.27 106.51 43.69 170.97 6.47 51.98-30 59.55-88.02 73.18-132.79a219.71 219.71 0 0 1 62.43-102.4c31.04-31.58 69.72-65.98 69.72-120.73 0-74.45-60.27-105.94-91.1-144.84-30.11-37.97-48.96-85.54-48.96-137.81 0-120.65 97.81-218.48 218.48-218.48 120.67 0 218.47 97.8 218.47 218.48 0 51.78-16.66 97.04-48.16 136.77-27.47 34.63-91.98 80.69-91.98 145.84 0 61.02 54.17 97.11 90.9 144.14a253.08 253.08 0 0 1 33.7 56.32c20 45.72 20.11 119.09 80.87 154.16 64.46 37.23 121.88.79 170.96-6.47 47.95-7.09 98.55.36 143.81 26.49 104.5 60.33 140.29 193.95 79.97 298.45-60.33 104.51-193.94 140.3-298.44 79.97-44.84-25.9-75.7-62.95-94.37-110.11-16.27-41.1-23.9-119.99-80.32-152.56-45.49-26.26-95.06-8.53-145.68 2.21a271.52 271.52 0 0 1-6.08 1.57c-2.34.6-4.7 1.14-7.06 1.62-1.79.38-3.61.74-5.41 1.1l-2.16.38a218.74 218.74 0 0 1-38.99 3.55c-1.31 0-2.59-.08-3.9-.11-.65 0-1.28-.02-1.91-.05-2.1-.06-4.21-.08-6.29-.2-6.26-.29-12.5-.8-18.71-1.57-60.55-7.41-120.47-38.45-174.58-7.21-56.42 32.57-64.05 111.46-80.33 152.56-18.66 47.18-49.51 84.2-94.36 110.11-104.5 60.33-238.12 24.52-298.44-79.97-60.32-104.48-24.53-238.07 79.96-298.41v.01Z"/><path stroke="#FFFBEB" stroke-miterlimit="10" stroke-width=".81" d="M1198.54 1317.61c43.94-25.38 93.06-32.6 139.61-25.73 47.66 7.06 103.4 42.43 165.99 6.29 50.47-29.14 57.82-85.47 71.06-128.94a213.1 213.1 0 0 1 60.61-99.42c30.13-30.66 67.68-64.05 67.68-117.21 0-72.28-58.51-102.87-88.44-140.62-29.23-36.86-47.53-83.05-47.53-133.8 0-117.14 94.96-212.12 212.12-212.12 117.16 0 212.11 94.96 212.11 212.13 0 50.27-16.17 94.21-46.75 132.8-26.67 33.61-89.3 78.33-89.3 141.59 0 59.25 52.58 94.28 88.25 139.94a245.51 245.51 0 0 1 32.72 54.68c19.42 44.39 19.52 115.62 78.51 149.67 62.57 36.13 118.33.77 165.98-6.29 46.56-6.87 95.68.35 139.61 25.72 101.47 58.58 136.21 188.3 77.64 289.76-58.57 101.47-188.29 136.21-289.74 77.64-43.54-25.15-73.5-61.11-91.62-106.89-15.8-39.91-23.2-116.5-77.99-148.12-44.16-25.5-92.28-8.27-141.44 2.15-1.52.42-3.04.82-4.55 1.19-.45.13-.9.22-1.35.33-2.26.57-4.56 1.1-6.85 1.56-1.75.37-3.51.72-5.26 1.07a212.74 212.74 0 0 1-39.95 3.81c-1.27 0-2.52-.08-3.79-.1-.62 0-1.25-.02-1.84-.05-2.04-.05-4.08-.07-6.1-.2-6.08-.27-12.14-.77-18.17-1.52-58.79-7.21-116.96-37.34-169.5-7-54.78 31.62-62.18 108.21-77.98 148.12-18.12 45.8-48.08 81.75-91.62 106.89-101.46 58.57-231.19 23.81-289.74-77.64-58.57-101.44-23.83-231.14 77.63-289.72l-.01.03Z"/><path stroke="#FFFBEB" stroke-miterlimit="10" stroke-width=".81" d="M1232.41 1308.55c42.66-24.63 90.34-31.65 135.55-24.97 46.26 6.84 100.39 41.19 161.15 6.1 49-28.29 56.13-82.97 68.98-125.17a207.23 207.23 0 0 1 58.85-96.51c29.25-29.77 65.72-62.19 65.72-113.8 0-70.18-56.82-99.87-85.88-136.52-28.39-35.8-46.14-80.63-46.14-129.9 0-113.73 92.19-205.95 205.94-205.95s205.94 92.2 205.94 205.95c0 48.8-15.7 91.46-45.39 128.92-25.89 32.64-86.7 76.06-86.7 137.47 0 57.52 51.06 91.54 85.68 135.88a237.94 237.94 0 0 1 31.77 53.09c18.85 43.1 18.95 112.26 76.22 145.31 60.76 35.08 114.89.75 161.16-6.11 45.2-6.67 92.88.34 135.55 24.98 98.5 56.86 132.23 182.81 75.37 281.31-56.87 98.51-182.8 132.25-281.31 75.38-42.27-24.42-71.35-59.33-88.94-103.78-15.34-38.75-22.52-113.11-75.71-143.81-42.87-24.76-89.6-8.04-137.31 2.08-1.48.42-2.95.8-4.44 1.17-.43.11-.86.22-1.31.31-2.2.56-4.43 1.07-6.65 1.53-1.69.36-3.41.69-5.11 1.03-.67.12-1.35.25-2.03.36a205.96 205.96 0 0 1-36.75 3.34c-1.24 0-2.44-.07-3.68-.09-.6 0-1.2-.02-1.79-.05-1.98-.06-3.96-.08-5.93-.19a226.3 226.3 0 0 1-17.64-1.48c-57.08-7-113.55-36.25-164.56-6.8-53.18 30.7-60.36 105.06-75.71 143.8-17.59 44.47-46.67 79.36-88.94 103.79-98.5 56.86-224.45 23.1-281.31-75.38-56.86-98.49-23.12-224.41 75.38-281.28l-.03-.01Z"/><path stroke="#FFFBEB" stroke-miterlimit="10" stroke-width=".81" d="M1265.29 1299.76c41.41-23.91 87.71-30.72 131.6-24.24 44.92 6.66 97.47 39.99 156.46 5.93 47.57-27.47 54.49-80.56 66.97-121.54a201.4 201.4 0 0 1 57.14-93.71c28.41-28.9 63.81-60.38 63.81-110.5 0-68.13-55.16-96.95-83.37-132.55-27.56-34.74-44.8-78.27-44.8-126.1 0-110.42 89.5-199.95 199.94-199.95 110.43 0 199.93 89.5 199.93 199.94 0 47.39-15.25 88.8-44.07 125.17-25.14 31.7-84.17 73.85-84.17 133.47 0 55.84 49.57 88.87 83.19 131.91a232.02 232.02 0 0 1 30.85 51.55c18.29 41.84 18.39 108.99 73.99 141.08 59 34.06 111.55.73 156.46-5.92 43.88-6.49 90.19.32 131.61 24.24 95.63 55.2 128.38 177.49 73.17 273.13-55.21 95.64-177.48 128.38-273.12 73.18-41.04-23.71-69.28-57.61-86.35-100.76-14.89-37.61-21.87-109.81-73.5-139.62-41.63-24.03-86.99-7.8-133.32 2.02-1.43.4-2.86.77-4.29 1.13-.43.12-.85.21-1.27.31-2.14.54-4.29 1.03-6.46 1.48-1.64.35-3.31.67-4.96 1.01l-1.98.35a199.7 199.7 0 0 1-35.68 3.25c-1.2 0-2.37-.08-3.58-.1-.59 0-1.17-.02-1.73-.04-1.93-.04-3.85-.07-5.76-.19-5.73-.25-11.44-.73-17.12-1.43-55.41-6.79-110.25-35.18-159.77-6.6-51.63 29.82-58.61 102.01-73.5 139.62-17.08 43.18-45.31 77.06-86.35 100.76-95.63 55.21-217.91 22.43-273.12-73.18-55.2-95.62-22.46-217.87 73.18-273.08l-.03-.02Z"/><path stroke="#FFFBEB" stroke-miterlimit="10" stroke-width=".81" d="M1297.2 1291.22c40.21-23.22 85.17-29.84 127.77-23.54 43.6 6.45 94.63 38.82 151.9 5.74 46.18-26.66 52.91-78.21 65.02-117.99a195.05 195.05 0 0 1 55.47-90.98c27.57-28.06 61.94-58.61 61.94-107.26 0-66.15-53.56-94.13-80.95-128.68-26.75-33.74-43.49-76-43.49-122.44 0-107.2 86.9-194.13 194.11-194.13 107.22 0 194.12 86.9 194.12 194.13 0 46-14.81 86.21-42.79 121.52-24.41 30.76-81.72 71.68-81.72 129.58 0 54.21 48.12 86.28 80.76 128.06a224.7 224.7 0 0 1 29.95 50.05c17.77 40.63 17.86 105.81 71.84 136.96 57.27 33.08 108.28.71 151.9-5.74 42.61-6.29 87.56.32 127.76 23.54 92.85 53.6 124.65 172.32 71.05 265.18-53.6 92.85-172.31 124.65-265.16 71.05-39.85-23.01-67.26-55.92-83.85-97.83-14.45-36.52-21.23-106.61-71.36-135.55-40.41-23.33-84.46-7.58-129.44 1.95-1.39.4-2.78.75-4.18 1.1-.41.12-.82.21-1.22.3-2.08.53-4.18 1-6.27 1.44-1.6.34-3.22.66-4.82.98l-1.91.34a194.75 194.75 0 0 1-34.65 3.15c-1.16 0-2.3-.06-3.47-.09-.57 0-1.14-.02-1.69-.05-1.87-.04-3.74-.06-5.58-.18a210.2 210.2 0 0 1-16.63-1.39c-53.8-6.59-107.03-34.17-155.11-6.41-50.13 28.95-56.91 99.04-71.37 135.56-16.58 41.92-43.99 74.81-83.84 97.83-92.84 53.6-211.57 21.78-265.17-71.06-53.59-92.82-21.8-211.52 71.05-265.12l.03-.02Z"/><path stroke="#FFFBEB" stroke-miterlimit="10" stroke-width=".81" d="M1328.19 1282.94c39.04-22.54 82.68-28.97 124.04-22.86 42.34 6.27 91.87 37.7 147.48 5.59 44.84-25.89 51.38-75.94 63.13-114.56a189.78 189.78 0 0 1 53.85-88.33c26.77-27.23 60.14-56.91 60.14-104.14 0-64.22-51.99-91.4-78.58-124.94-25.98-32.75-42.23-73.78-42.23-118.87 0-104.08 84.36-188.47 188.46-188.47 104.09 0 188.46 84.37 188.46 188.47 0 44.67-14.38 83.7-41.55 118-23.68 29.87-79.33 69.6-79.33 125.8 0 52.63 46.72 83.77 78.4 124.34a218.15 218.15 0 0 1 29.08 48.59c17.25 39.44 17.33 102.73 69.74 132.97 55.6 32.11 105.14.69 147.48-5.58 41.36-6.11 85.01.31 124.05 22.86 90.14 52.03 121 167.29 68.97 257.44s-167.29 121.03-257.43 68.98c-38.69-22.35-65.31-54.3-81.41-94.97-14.03-35.46-20.61-103.5-69.28-131.6-39.23-22.66-81.99-7.35-125.66 1.9-1.35.38-2.7.73-4.05 1.07-.4.1-.79.2-1.19.28-2.02.51-4.05.98-6.1 1.4-1.55.33-3.12.64-4.67.95l-1.86.33a189.23 189.23 0 0 1-33.63 3.06c-1.13 0-2.23-.07-3.37-.09-.55 0-1.11-.02-1.63-.04-1.82-.04-3.63-.07-5.43-.18a202.2 202.2 0 0 1-16.14-1.36c-52.23-6.39-103.92-33.16-150.6-6.21-48.67 28.1-55.24 96.14-69.28 131.6-16.09 40.69-42.71 72.63-81.4 94.97-90.15 52.04-205.4 21.15-257.43-68.98-52.04-90.13-21.18-205.37 68.97-257.4v-.02Z"/><path stroke="#FFFBEB" stroke-miterlimit="10" stroke-width=".81" d="M1358.28 1274.89c37.9-21.88 80.27-28.12 120.44-22.19 41.1 6.08 89.19 36.59 143.17 5.41 43.53-25.12 49.87-73.71 61.29-111.22a183.82 183.82 0 0 1 17.92-42.71 183.62 183.62 0 0 1 34.35-43.05c26-26.44 58.39-55.25 58.39-101.1 0-62.35-50.48-88.73-76.29-121.3-25.22-31.8-41.01-71.64-41.01-115.41 0-101.05 81.91-182.98 182.98-182.98 101.06 0 182.97 81.9 182.97 182.98 0 43.36-13.95 81.26-40.34 114.55-23 29-77.03 67.57-77.03 122.13 0 51.11 45.36 81.33 76.12 120.72a211.56 211.56 0 0 1 28.23 47.17c16.75 38.28 16.83 99.73 67.71 129.1 53.98 31.18 102.08.67 143.18-5.41 40.15-5.94 82.53.29 120.43 22.19 87.53 50.52 117.49 162.43 66.97 249.95-50.52 87.52-162.42 117.49-249.94 66.96-37.55-21.69-63.4-52.71-79.03-92.21-13.63-34.43-20.02-100.48-67.27-127.77-38.09-22-79.6-7.14-122 1.85a143.12 143.12 0 0 1-5.1 1.31 243.27 243.27 0 0 1-10.45 2.27l-1.81.32a182.89 182.89 0 0 1-32.65 2.97c-1.1 0-2.17-.06-3.27-.08-.54 0-1.08-.02-1.59-.04-1.77-.05-3.52-.07-5.27-.17-5.24-.23-10.47-.67-15.67-1.31-50.71-6.21-100.89-32.21-146.21-6.04-47.25 27.28-53.64 93.34-67.27 127.77-15.63 39.51-41.47 70.52-79.03 92.21-87.53 50.53-199.42 20.53-249.94-66.97-50.52-87.49-20.55-199.38 66.97-249.9h.05Z"/><path stroke="#FFFBEB" stroke-miterlimit="10" stroke-width=".81" d="M1387.49 1267.07c36.79-21.25 77.93-27.3 116.92-21.54 39.91 5.91 86.6 35.52 139.01 5.25 42.27-24.39 48.43-71.56 59.51-107.97a179 179 0 0 1 50.76-83.26c25.24-25.68 56.69-53.65 56.69-98.17 0-60.53-49.01-86.15-74.07-117.77-24.48-30.87-39.81-69.55-39.81-112.04 0-98.11 79.52-177.65 177.64-177.65 98.12 0 177.64 79.52 177.64 177.65 0 42.1-13.54 78.9-39.15 111.2-22.33 28.16-74.78 65.6-74.78 118.59 0 49.61 44.04 78.96 73.9 117.2a205.8 205.8 0 0 1 27.41 45.8c16.25 37.17 16.33 96.82 65.74 125.34 52.42 30.26 99.11.64 139.01-5.26 38.99-5.76 80.13.3 116.93 21.54 84.96 49.06 114.07 157.69 65.02 242.68-49.05 84.96-157.69 114.07-242.66 65.02-36.47-21.06-61.55-51.18-76.73-89.53-13.23-33.42-19.43-97.57-65.31-124.05-36.98-21.35-77.28-6.93-118.44 1.8-1.27.36-2.55.69-3.82 1-.38.11-.75.19-1.13.28-1.91.47-3.82.92-5.75 1.31-1.46.32-2.94.6-4.4.9l-1.75.32a178.1 178.1 0 0 1-31.71 2.87c-1.07 0-2.1-.06-3.17-.08-.52 0-1.05-.02-1.54-.04-1.72-.05-3.43-.07-5.12-.17-5.1-.24-10.17-.65-15.22-1.27-49.24-6.03-97.95-31.27-141.95-5.87-45.88 26.48-52.07 90.63-65.3 124.05-15.18 38.36-40.27 68.46-76.73 89.52-84.97 49.06-193.61 19.94-242.66-65.02-49.05-84.95-19.96-193.58 65.02-242.63Z"/><path stroke="#FFFBEB" stroke-miterlimit="10" stroke-width=".81" d="M1415.85 1259.49c35.73-20.63 75.67-26.5 113.52-20.91 38.75 5.73 84.08 34.49 134.96 5.11 41.03-23.69 47.01-69.49 57.77-104.83a173.15 173.15 0 0 1 16.91-40.27 172.9 172.9 0 0 1 32.38-40.57c24.5-24.93 55.03-52.08 55.03-95.3 0-58.77-47.58-83.64-71.91-114.34-23.78-29.97-38.64-67.52-38.64-108.79 0-95.25 77.2-172.48 172.46-172.48 95.27 0 172.47 77.21 172.47 172.48 0 40.88-13.15 76.6-38.02 107.98-21.68 27.33-72.6 63.69-72.6 115.12 0 48.17 42.76 76.67 71.76 113.79a200.08 200.08 0 0 1 26.61 44.46c15.79 36.1 15.86 94.01 63.83 121.69 50.88 29.38 96.22.62 134.96-5.11 37.85-5.59 77.79.29 113.52 20.91 82.49 47.63 110.75 153.1 63.12 235.61-47.62 82.49-153.09 110.75-235.59 63.13-35.4-20.45-59.76-49.69-74.5-86.92-12.85-32.45-18.86-94.72-63.4-120.43-35.9-20.73-75.03-6.73-115 1.75-1.24.35-2.47.66-3.71.97-.36.1-.73.18-1.09.26-1.84.47-3.71.89-5.57 1.28-1.42.31-2.86.6-4.28.87l-1.7.31a172.4 172.4 0 0 1-30.78 2.79c-1.04 0-2.06-.06-3.08-.09-.51 0-1.02-.02-1.5-.04-1.66-.04-3.32-.06-4.96-.16-4.95-.22-9.87-.62-14.78-1.23-47.8-5.86-95.1-30.36-137.81-5.69-44.55 25.72-50.56 87.99-63.4 120.43-14.73 37.25-39.09 66.47-74.5 86.91-82.49 47.63-187.97 19.36-235.59-63.13-47.63-82.48-19.38-187.94 63.12-235.56h-.01Z"/><path stroke="#FFFBEB" stroke-miterlimit="10" stroke-width=".81" d="M1443.38 1252.13c34.69-20.03 73.46-25.73 110.21-20.31 37.62 5.56 81.62 33.49 131.03 4.96 39.84-23 45.65-67.46 56.1-101.77a168.33 168.33 0 0 1 47.84-78.48c23.79-24.2 53.44-50.56 53.44-92.53 0-57.06-46.19-81.2-69.82-111-23.08-29.1-37.52-65.57-37.52-105.62 0-92.47 74.96-167.46 167.44-167.46 92.49 0 167.45 74.97 167.45 167.46 0 39.68-12.77 74.37-36.91 104.83-21.06 26.54-70.49 61.84-70.49 111.77 0 46.77 41.51 74.42 69.67 110.48a194.17 194.17 0 0 1 25.83 43.16c15.33 35.04 15.41 91.27 61.98 118.15 49.4 28.52 93.41.61 131.03-4.96 36.75-5.43 75.53.27 110.21 20.3 80.09 46.24 107.52 148.65 61.29 228.75-46.24 80.09-148.65 107.52-228.74 61.29-34.37-19.86-58.02-48.24-72.31-84.39-12.47-31.5-18.32-91.96-61.56-116.93-34.86-20.13-72.86-6.54-111.65 1.69a119.24 119.24 0 0 1-4.66 1.19c-1.78.46-3.59.87-5.41 1.24-1.38.3-2.77.57-4.16.85l-1.65.29a167.12 167.12 0 0 1-29.88 2.72c-1.01 0-1.99-.06-3-.07-.49 0-.98-.02-1.46-.04-1.61-.05-3.22-.07-4.82-.16-4.8-.21-9.58-.62-14.34-1.2-46.41-5.69-92.33-29.47-133.8-5.53-43.25 24.97-49.09 85.42-61.57 116.93-14.29 36.16-37.95 64.54-72.31 84.39-80.09 46.24-182.5 18.79-228.73-61.29-46.24-80.07-18.81-182.46 61.28-228.7l-.01-.01Z"/><path stroke="#FFFBEB" stroke-miterlimit="10" stroke-width=".81" d="M1470.12 1244.98c33.67-19.45 71.32-24.98 107-19.72 36.52 5.41 79.26 32.52 127.22 4.82 38.67-22.33 44.31-65.5 54.45-98.82a163.86 163.86 0 0 1 46.45-76.2c23.1-23.5 51.87-49.09 51.87-89.83 0-55.4-44.85-78.84-67.79-107.78-22.41-28.25-36.42-63.64-36.42-102.53 0-89.78 72.77-162.58 162.57-162.58s162.57 72.77 162.57 162.58c0 38.53-12.39 72.2-35.83 101.77-20.44 25.77-68.43 60.04-68.43 108.53 0 45.4 40.3 72.26 67.63 107.25a187.47 187.47 0 0 1 25.07 41.91c14.88 34.03 14.96 88.62 60.17 114.71 47.96 27.7 90.68.6 127.21-4.81 35.69-5.27 73.34.27 107.01 19.72 77.76 44.88 104.38 144.31 59.5 222.08-44.89 77.76-144.31 104.38-222.07 59.5-33.37-19.27-56.33-46.85-70.21-81.93-12.11-30.58-17.78-89.28-59.77-113.52-33.84-19.55-70.73-6.35-108.4 1.64a105.9 105.9 0 0 1-4.54 1.16c-1.73.44-3.5.84-5.25 1.21l-4.03.82-1.61.29c-9.41 1.7-19.1 2.63-29.01 2.63-.97 0-1.92-.05-2.91-.07-.47 0-.95-.02-1.41-.05-1.57-.04-3.13-.05-4.68-.14-4.66-.22-9.3-.6-13.93-1.17-45.06-5.52-89.64-28.62-129.9-5.37-41.98 24.24-47.65 82.94-59.76 113.53-13.89 35.11-36.85 62.65-70.21 81.92-77.77 44.88-177.18 18.24-222.07-59.5-44.89-77.75-18.27-177.16 59.5-222.04l.01-.01Z"/><path stroke="#FFFBEB" stroke-miterlimit="10" stroke-width=".81" d="M1496.07 1238.03c32.69-18.88 69.25-24.26 103.89-19.14 35.46 5.24 76.93 31.56 123.5 4.67 37.55-21.68 43.02-63.59 52.87-95.94 3.5-12.6 8.62-25 15.46-36.84a158.2 158.2 0 0 1 29.63-37.14c22.42-22.81 50.37-47.66 50.37-87.22 0-53.78-43.54-76.54-65.81-104.63-21.75-27.42-35.36-61.8-35.36-99.55 0-87.16 70.65-157.84 157.83-157.84 87.17 0 157.83 70.66 157.83 157.84 0 37.4-12.03 70.1-34.79 98.81-19.84 25.01-66.45 58.29-66.45 105.36 0 44.08 39.13 70.16 65.66 104.13a182.71 182.71 0 0 1 24.35 40.69c14.45 33.03 14.52 86.04 58.42 111.37 46.56 26.89 88.05.57 123.5-4.68 34.65-5.11 71.2.27 103.89 19.15 75.5 43.58 101.35 140.11 57.76 215.61-43.58 75.5-140.1 101.35-215.59 57.76-32.4-18.71-54.69-45.48-68.18-79.54-11.76-29.69-17.27-86.68-58.02-110.22-32.86-18.97-68.67-6.15-105.24 1.6a113.86 113.86 0 0 1-4.4 1.13c-1.69.43-3.4.82-5.1 1.17l-3.91.79-1.56.27a158.43 158.43 0 0 1-28.17 2.56c-.94 0-1.87-.05-2.83-.07-.46 0-.93-.02-1.37-.04-1.52-.05-3.05-.06-4.55-.15-4.52-.2-9.03-.57-13.51-1.13-43.76-5.37-87.03-27.79-126.13-5.22-40.76 23.54-46.27 80.53-58.03 110.22-13.48 34.09-35.78 60.82-68.17 79.54-75.5 43.59-172.03 17.72-215.6-57.77-43.58-75.48-17.72-171.99 57.77-215.57l.04.02Z"/><path stroke="#FFFBEB" stroke-miterlimit="10" stroke-width=".81" d="M1521.27 1231.29c31.74-18.33 67.23-23.55 100.86-18.58 34.43 5.1 74.7 30.65 119.91 4.54 36.45-21.05 41.77-61.75 51.33-93.15a154.52 154.52 0 0 1 15.02-35.78 153.54 153.54 0 0 1 28.77-36.04c21.76-22.15 48.9-46.27 48.9-84.68 0-52.22-42.27-74.31-63.9-101.59-21.12-26.63-34.34-60-34.34-96.66 0-84.62 68.6-153.24 153.23-153.24 84.64 0 153.24 68.6 153.24 153.24 0 36.32-11.69 68.06-33.78 95.94-19.27 24.3-64.51 56.6-64.51 102.3 0 42.8 37.98 68.11 63.75 101.09a177.38 177.38 0 0 1 23.63 39.51c14.03 32.06 14.1 83.53 56.72 108.12 45.21 26.11 85.48.56 119.91-4.54 33.63-4.97 69.12.25 100.86 18.58 73.3 42.32 98.4 136.03 56.08 209.33-42.31 73.3-136.02 98.4-209.31 56.08-31.46-18.17-53.09-44.14-66.19-77.23-11.41-28.83-16.76-84.15-56.33-107.01-31.91-18.42-66.67-5.97-102.17 1.55-1.1.31-2.2.59-3.3.87-.33.09-.65.15-.98.23-1.64.41-3.3.79-4.95 1.13-1.26.27-2.54.52-3.79.77l-1.52.28c-8.87 1.6-18 2.48-27.34 2.48-.93 0-1.82-.05-2.74-.07-.46 0-.9-.02-1.34-.03a169.35 169.35 0 0 1-17.53-1.25c-42.47-5.2-84.5-26.97-122.45-5.06-39.57 22.85-44.92 78.18-56.33 107.01-13.1 33.1-34.73 59.06-66.19 77.23-73.3 42.32-167.01 17.2-209.31-56.08-42.32-73.29-17.22-166.98 56.08-209.3l.01.01Z"/><path stroke="#FFFBEB" stroke-miterlimit="10" stroke-width=".81" d="M1545.73 1224.76c30.82-17.8 65.28-22.87 97.92-18.05 33.42 4.95 72.53 29.75 116.42 4.41 35.4-20.43 40.56-59.94 49.83-90.42a149.65 149.65 0 0 1 42.51-69.73c21.13-21.5 47.47-44.93 47.47-82.21 0-50.7-41.04-72.14-62.03-98.63-20.51-25.85-33.34-58.24-33.34-93.83 0-82.15 66.6-148.77 148.77-148.77 82.17 0 148.77 66.6 148.77 148.77 0 35.26-11.35 66.08-32.8 93.14-18.7 23.58-62.63 54.94-62.63 99.3 0 41.56 36.89 66.14 61.9 98.17a171 171 0 0 1 22.95 38.35c13.62 31.13 13.69 81.09 55.06 104.96 43.89 25.36 83 .54 116.42-4.41 32.66-4.82 67.1.25 97.92 18.05 71.16 41.08 95.53 132.06 54.45 203.23-41.07 71.17-132.06 95.54-203.22 54.46-30.54-17.64-51.55-42.87-64.26-74.98-11.08-27.98-16.27-81.7-54.7-103.89-30.97-17.88-64.72-5.8-99.2 1.5-1.06.3-2.13.59-3.19.84-.32.08-.63.16-.94.22-1.59.4-3.2.77-4.81 1.1-1.23.27-2.47.51-3.69.75l-1.47.27a149.93 149.93 0 0 1-26.56 2.41c-.89 0-1.77-.05-2.65-.08-.44 0-.88-.02-1.29-.03-1.44-.03-2.87-.05-4.29-.13a159.7 159.7 0 0 1-12.74-1.07c-41.24-5.06-82.04-26.19-118.88-4.91-38.43 22.18-43.62 75.91-54.7 103.89-12.71 32.13-33.72 57.33-64.26 74.98-71.16 41.07-162.15 16.68-203.22-54.46-41.08-71.15-16.71-162.13 54.45-203.2h.03Z"/><path stroke="#FFFBEB" stroke-miterlimit="10" stroke-width=".81" d="M1569.49 1218.4c29.92-17.28 63.37-22.2 95.07-17.51 32.45 4.8 70.42 28.88 113.03 4.27 34.37-19.84 39.37-58.2 48.38-87.79a144.95 144.95 0 0 1 14.15-33.73 144.75 144.75 0 0 1 27.12-33.98c20.51-20.88 46.08-43.62 46.08-79.82 0-49.22-39.84-70.05-60.22-95.76-19.91-25.1-32.37-56.55-32.37-91.1 0-79.77 64.66-144.45 144.45-144.45 79.78 0 144.44 64.66 144.44 144.45 0 34.23-11.01 64.15-31.83 90.42-18.16 22.9-60.81 53.35-60.81 96.42 0 40.33 35.81 64.2 60.09 95.29a166.55 166.55 0 0 1 22.28 37.24c13.22 30.22 13.29 78.73 53.46 101.91 42.61 24.61 80.58.53 113.03-4.27 31.7-4.69 65.14.23 95.07 17.51 69.09 39.88 92.75 128.23 52.87 197.31-39.88 69.1-128.22 92.76-197.3 52.87-29.65-17.12-50.05-41.61-62.39-72.79-10.75-27.17-15.8-79.33-53.1-100.87-30.08-17.37-62.84-5.64-96.31 1.46-1.04.29-2.07.56-3.11.81-.31.09-.61.15-.92.23a95.3 95.3 0 0 1-4.67 1.06c-1.18.26-2.39.5-3.58.73l-1.43.26a144.9 144.9 0 0 1-25.78 2.34c-.87 0-1.72-.06-2.58-.07-.43 0-.85-.02-1.26-.03-1.4-.03-2.78-.05-4.16-.14-4.14-.19-8.26-.53-12.37-1.03-40.04-4.91-79.65-25.43-115.42-4.77-37.3 21.53-42.35 73.69-53.1 100.86-12.35 31.19-32.74 55.67-62.39 72.8-69.09 39.88-157.42 16.2-197.3-52.87-39.88-69.08-16.23-157.4 52.87-197.28l.01.02Z"/><path stroke="#FFFBEB" stroke-miterlimit="10" stroke-width=".81" d="M1592.54 1212.23c29.05-16.77 61.52-21.55 92.31-17 31.5 4.66 68.36 28.05 109.73 4.15 33.37-19.26 38.22-56.49 46.98-85.23a140.3 140.3 0 0 1 13.74-32.74 140.2 140.2 0 0 1 26.33-32.99c19.92-20.27 44.75-42.35 44.75-77.5 0-47.78-38.69-68-58.48-92.96-19.32-24.37-31.42-54.9-31.42-88.45 0-77.44 62.78-140.24 140.24-140.24 77.45 0 140.23 62.78 140.23 140.24 0 33.23-10.69 62.29-30.91 87.8-17.63 22.23-59.04 51.79-59.04 93.6 0 39.17 34.77 62.34 58.35 92.53a162.73 162.73 0 0 1 21.64 36.15c12.84 29.35 12.9 76.43 51.9 98.95 41.38 23.89 78.23.51 109.74-4.16 30.77-4.55 63.25.23 92.3 17.01 67.07 38.72 90.04 124.48 51.33 191.57-38.72 67.07-124.48 90.04-191.56 51.32-28.79-16.62-48.59-40.4-60.57-70.67-10.45-26.38-15.33-77.01-51.56-97.92-29.2-16.86-61.01-5.47-93.5 1.41-1 .28-2.01.54-3.01.8a89.31 89.31 0 0 1-5.41 1.24c-1.16.25-2.33.48-3.48.71l-1.39.25a140.37 140.37 0 0 1-25.03 2.27c-.84 0-1.66-.05-2.51-.06-.41 0-.82-.02-1.22-.03-1.35-.04-2.7-.06-4.03-.13-4.02-.18-8.03-.51-12.02-1.01-38.86-4.76-77.33-24.68-112.06-4.63-36.21 20.91-41.11 71.55-51.56 97.93-11.98 30.29-31.78 54.04-60.56 70.67-67.07 38.72-152.84 15.74-191.56-51.33-38.72-67.06-15.75-152.82 51.32-191.53l-.01-.02Z"/><path stroke="#FFFBEB" stroke-miterlimit="10" stroke-width=".81" d="M1614.93 1206.25c28.21-16.29 59.73-20.92 89.62-16.51 30.58 4.53 66.37 27.22 106.54 4.03 32.39-18.7 37.11-54.86 45.6-82.76a137.06 137.06 0 0 1 38.9-63.82c19.34-19.67 43.44-41.11 43.44-75.24 0-46.4-37.56-66.01-56.77-90.25-18.76-23.66-30.51-53.3-30.51-85.88 0-75.2 60.95-136.16 136.15-136.16 75.21 0 136.16 60.95 136.16 136.16 0 32.26-10.39 60.47-30.02 85.23-17.11 21.58-57.32 50.28-57.32 90.88 0 38.02 33.76 60.52 56.65 89.83a157.97 157.97 0 0 1 21 35.1c12.46 28.49 12.52 74.21 50.39 96.06 40.17 23.2 75.96.5 106.54-4.03 29.89-4.41 61.42.22 89.62 16.51 65.13 37.6 87.42 120.87 49.83 185.99s-120.85 87.42-185.97 49.83c-27.94-16.14-47.18-39.23-58.8-68.61-10.14-25.61-14.89-74.77-50.06-95.07-28.34-16.36-59.23-5.31-90.78 1.38a96.95 96.95 0 0 1-3.79.98c-1.46.37-2.93.71-4.4 1.01-1.12.24-2.26.46-3.38.68l-1.34.25a137 137 0 0 1-24.3 2.21c-.82 0-1.62-.06-2.44-.07-.4 0-.8-.02-1.18-.03-1.31-.03-2.62-.05-3.92-.12-3.91-.18-7.8-.5-11.67-.98-37.73-4.62-75.08-23.96-108.79-4.49-35.17 20.29-39.91 69.46-50.06 95.07-11.63 29.4-30.86 52.47-58.8 68.61-65.12 37.59-148.39 15.28-185.97-49.84-37.6-65.11-15.29-148.36 49.83-185.95Z"/><path stroke="#FFFBEB" stroke-miterlimit="10" stroke-width=".81" d="M1636.66 1200.43c27.38-15.81 58-20.32 87.01-16.03 29.7 4.4 64.44 26.43 103.43 3.91 31.45-18.16 36.03-53.26 44.28-80.35a132.8 132.8 0 0 1 37.78-61.95c18.77-19.1 42.18-39.92 42.18-73.05 0-45.05-36.46-64.1-55.12-87.63-18.22-22.97-29.61-51.75-29.61-83.37 0-73 59.17-132.2 132.19-132.2 73.01 0 132.18 59.18 132.18 132.2 0 31.33-10.07 58.7-29.13 82.75-16.62 20.95-55.65 48.82-55.65 88.24 0 36.92 32.77 58.75 54.99 87.21a152.62 152.62 0 0 1 20.39 34.08c12.1 27.65 12.16 72.05 48.93 93.27 38.99 22.51 73.74.48 103.43-3.92 29.01-4.28 59.62.23 87 16.04 63.22 36.5 84.88 117.34 48.38 180.57-36.5 63.22-117.34 84.88-180.56 48.37-27.14-15.67-45.81-38.08-57.09-66.62-9.85-24.86-14.46-72.59-48.6-92.3-27.51-15.88-57.51-5.16-88.13 1.34-.96.26-1.9.5-2.85.74l-.84.2a190.65 190.65 0 0 1-7.55 1.65l-1.3.23a132.76 132.76 0 0 1-23.59 2.15c-.79 0-1.57-.05-2.36-.07-.39 0-.77-.01-1.15-.03-1.27-.03-2.55-.04-3.81-.13a138.8 138.8 0 0 1-11.33-.95c-36.63-4.48-72.88-23.27-105.62-4.37-34.13 19.72-38.75 67.44-48.59 92.3-11.3 28.55-29.96 50.95-57.09 66.62-63.22 36.5-144.06 14.83-180.56-48.37-36.5-63.22-14.85-144.04 48.37-180.54l-.01.01Z"/><path stroke="#FFFBEB" stroke-miterlimit="10" stroke-width=".81" d="M1657.76 1194.78c26.59-15.34 56.31-19.72 84.47-15.55 28.83 4.26 62.56 25.66 100.43 3.79 30.53-17.63 34.98-51.7 42.99-78a128.8 128.8 0 0 1 36.66-60.14c18.24-18.55 40.95-38.76 40.95-70.92 0-43.73-35.4-62.23-53.51-85.07-17.68-22.3-28.75-50.25-28.75-80.94 0-70.88 57.44-128.35 128.33-128.35 70.89 0 128.34 57.45 128.34 128.35 0 30.41-9.78 57-28.29 80.33-16.14 20.34-54.03 47.4-54.03 85.67 0 35.84 31.81 57.05 53.39 84.68a148.46 148.46 0 0 1 19.8 33.08c11.75 26.85 11.8 69.95 47.5 90.55 37.86 21.86 71.59.47 100.42-3.8 28.17-4.16 57.88.22 84.47 15.56 61.38 35.44 82.41 113.93 46.97 175.31-35.44 61.39-113.92 82.41-175.3 46.97-26.35-15.22-44.48-36.97-55.43-64.67-9.56-24.15-14.04-70.48-47.18-89.61-26.71-15.43-55.84-5.01-85.57 1.3l-2.76.72-.81.2c-1.38.35-2.76.66-4.15.95l-3.18.65-1.27.22a129.03 129.03 0 0 1-22.91 2.08c-.77 0-1.52-.04-2.29-.06-.38 0-.75-.01-1.12-.03-1.24-.04-2.48-.05-3.69-.12-3.69-.17-7.34-.47-10.99-.92-35.57-4.36-70.77-22.59-102.56-4.24-33.14 19.13-37.61 65.48-47.17 89.61-10.97 27.72-29.09 49.45-55.43 64.67-61.38 35.45-139.87 14.41-175.31-46.96-35.43-61.38-14.41-139.85 46.97-175.29l.01-.02Z"/><path stroke="#FFFBEB" stroke-miterlimit="10" stroke-width=".81" d="M1678.26 1189.31c25.8-14.91 54.66-19.16 82-15.12 28 4.15 60.74 24.92 97.5 3.69 29.64-17.11 33.96-50.2 41.73-75.73a125.16 125.16 0 0 1 35.6-58.4c17.7-18.01 39.76-37.61 39.76-68.85 0-42.45-34.37-60.42-51.95-82.6-17.18-21.65-27.92-48.77-27.92-78.59 0-68.8 55.77-124.6 124.59-124.6 68.81 0 124.59 55.78 124.59 124.6 0 29.53-9.5 55.34-27.46 78-15.67 19.75-52.46 46.02-52.46 83.17 0 34.8 30.89 55.39 51.84 82.2a144.38 144.38 0 0 1 19.22 32.12c11.4 26.07 11.46 67.91 46.11 87.91 36.76 21.23 69.5.46 97.5-3.69 27.35-4.04 56.2.2 82 15.11 59.6 34.41 80.01 110.61 45.6 170.21-34.4 59.59-110.6 80.01-170.19 45.6-25.57-14.77-43.17-35.89-53.81-62.79-9.29-23.44-13.63-68.43-45.8-87.01-25.95-14.98-54.22-4.87-83.09 1.26-.89.25-1.78.48-2.67.7l-.8.19c-1.33.33-2.67.64-4.03.92-1.02.22-2.06.42-3.08.63l-1.23.22a125.23 125.23 0 0 1-22.24 2.02c-.75 0-1.48-.04-2.22-.06-.37 0-.73-.01-1.08-.03-1.21-.03-2.4-.04-3.59-.12a136.2 136.2 0 0 1-10.67-.89c-34.53-4.23-68.7-21.93-99.56-4.11-32.18 18.58-36.53 63.56-45.8 87.01-10.64 26.91-28.24 48.02-53.81 62.79-59.59 34.41-135.79 13.98-170.2-45.6-34.4-59.59-13.99-135.77 45.61-170.18l.01.02Z"/><path stroke="#FFFBEB" stroke-miterlimit="10" stroke-width=".81" d="M1698.15 1183.99c25.05-14.47 53.07-18.6 79.63-14.67 27.18 4.02 58.97 24.18 94.65 3.58 28.78-16.61 32.97-48.73 40.52-73.52a121.1 121.1 0 0 1 11.86-28.24 121.24 121.24 0 0 1 22.72-28.46c17.18-17.49 38.6-36.53 38.6-66.85 0-41.21-33.38-58.65-50.45-80.19-16.67-21.02-27.1-47.36-27.1-76.3 0-66.8 54.14-120.96 120.96-120.96s120.97 54.15 120.97 120.97c0 28.67-9.23 53.73-26.66 75.72-15.21 19.18-50.93 44.68-50.93 80.75 0 33.78 30 53.77 50.33 79.81a139.79 139.79 0 0 1 18.67 31.19c11.07 25.32 11.13 65.93 44.77 85.35 35.69 20.61 67.48.45 94.65-3.58 26.54-3.93 54.56.2 79.62 14.67 57.86 33.4 77.68 107.38 44.27 165.24-33.39 57.86-107.37 77.68-165.23 44.27-24.83-14.34-41.91-34.85-52.25-60.96-9.01-22.76-13.23-66.43-44.47-84.47-25.18-14.55-52.63-4.72-80.66 1.22-.86.25-1.73.47-2.6.69a85.24 85.24 0 0 1-4.68 1.08l-3.01.61-1.19.22a121.92 121.92 0 0 1-21.59 1.95c-.73 0-1.44-.04-2.16-.05-.35 0-.7-.01-1.04-.03-1.17-.03-2.33-.05-3.48-.12-3.47-.16-6.92-.44-10.37-.87-33.52-4.1-66.7-21.29-96.66-3.99-31.24 18.03-35.46 61.71-44.47 84.47-10.33 26.12-27.41 46.62-52.24 60.96-57.86 33.4-131.84 13.57-165.24-44.27-33.4-57.85-13.59-131.81 44.27-165.22h-.01Z"/><path stroke="#FFFBEB" stroke-miterlimit="10" stroke-width=".81" d="M1717.46 1178.82c24.33-14.04 51.53-18.05 77.3-14.24 26.39 3.9 57.26 23.49 91.9 3.48 27.94-16.13 32.02-47.32 39.35-71.39a118.24 118.24 0 0 1 33.55-55.05c16.68-16.98 37.48-35.46 37.48-64.9 0-40.02-32.4-56.95-48.97-77.86-16.2-20.41-26.32-45.99-26.32-74.08 0-64.85 52.58-117.44 117.45-117.44s117.44 52.57 117.44 117.44c0 27.84-8.96 52.17-25.89 73.53-14.76 18.61-49.44 43.37-49.44 78.4 0 32.79 29.11 52.2 48.86 77.47a136.38 136.38 0 0 1 18.12 30.28c10.74 24.58 10.8 64.02 43.46 82.87 34.65 20.01 65.52.42 91.91-3.48 25.77-3.81 52.97.19 77.29 14.24 56.18 32.43 75.42 104.27 42.98 160.44-32.42 56.18-104.25 75.41-160.42 42.98-24.1-13.93-40.7-33.84-50.72-59.19-8.75-22.09-12.85-64.5-43.18-82.01-24.45-14.11-51.1-4.57-78.32 1.19l-2.52.67-.74.18c-1.26.31-2.53.6-3.8.86-.96.21-1.95.4-2.91.59l-1.16.22c-6.8 1.22-13.8 1.9-20.96 1.9-.71 0-1.4-.04-2.1-.05-.35 0-.68-.01-1.02-.03-1.13-.04-2.27-.05-3.39-.11-3.36-.15-6.71-.42-10.05-.85-32.56-3.98-64.76-20.67-93.85-3.88-30.33 17.52-34.43 59.92-43.18 82.01-10.04 25.36-26.62 45.27-50.73 59.18-56.17 32.43-127.99 13.18-160.42-42.98-32.42-56.16-13.19-127.97 42.98-160.41l.02.02Z"/><path stroke="#FFFBEB" stroke-miterlimit="10" stroke-width=".81" d="M1736.2 1173.81c23.62-13.64 50.03-17.52 75.05-13.82 25.61 3.78 55.58 22.8 89.23 3.37 27.12-15.66 31.08-45.94 38.19-69.3a114.5 114.5 0 0 1 32.58-53.45c16.2-16.47 36.39-34.43 36.39-63.01 0-38.86-31.45-55.3-47.55-75.59-15.71-19.82-25.55-44.64-25.55-71.92 0-62.97 51.04-114.02 114.02-114.02s114.01 51.04 114.01 114.02c0 27.03-8.69 50.64-25.12 71.38-14.33 18.08-48.01 42.1-48.01 76.12 0 31.85 28.27 50.68 47.45 75.23a132.31 132.31 0 0 1 17.58 29.39c10.44 23.86 10.49 62.16 42.2 80.45 33.64 19.43 63.61.42 89.23-3.37 25.02-3.7 51.43.19 75.04 13.82 54.54 31.49 73.22 101.22 41.73 155.76-31.48 54.54-101.2 73.22-155.74 41.73-23.41-13.51-39.52-32.85-49.26-57.46-8.49-21.45-12.46-62.62-41.92-79.62-23.74-13.7-49.61-4.45-76.03 1.16-.81.23-1.64.44-2.45.64-.24.07-.49.12-.72.17a93.3 93.3 0 0 1-6.5 1.42l-1.12.2c-6.61 1.2-13.4 1.85-20.35 1.85-.69 0-1.36-.04-2.04-.05-.34 0-.67-.01-1-.03-1.1-.04-2.2-.05-3.28-.11-3.26-.15-6.52-.41-9.76-.81-31.6-3.87-62.87-20.08-91.11-3.77-29.44 17.01-33.43 58.17-41.92 79.62-9.74 24.62-25.85 43.94-49.25 57.46-54.54 31.49-124.28 12.8-155.75-41.73-31.48-54.54-12.81-124.25 41.73-155.74v.01Z"/><path stroke="#FFFBEB" stroke-miterlimit="10" stroke-width=".81" d="M1754.41 1168.95c22.93-13.25 48.57-17.02 72.87-13.43 24.87 3.69 53.97 22.14 86.63 3.28 26.33-15.21 30.17-44.6 37.08-67.28a110.45 110.45 0 0 1 10.85-25.85 110.77 110.77 0 0 1 20.78-26.04c15.72-16 35.32-33.43 35.32-61.17 0-37.73-30.54-53.69-46.16-73.4-15.26-19.23-24.8-43.33-24.8-69.82 0-61.13 49.55-110.7 110.69-110.7s110.7 49.56 110.7 110.7c0 26.24-8.44 49.17-24.4 69.31-13.92 17.55-46.61 40.88-46.61 73.9 0 30.91 27.45 49.21 46.06 73.04a128.6 128.6 0 0 1 17.08 28.53c10.13 23.16 10.19 60.34 40.97 78.11 32.66 18.85 61.75.4 86.63-3.28 24.29-3.59 49.93.18 72.86 13.42 52.96 30.56 71.08 98.27 40.52 151.23-30.56 52.95-98.27 71.08-151.22 40.52-22.73-13.13-38.36-31.9-47.82-55.79-8.24-20.83-12.1-60.8-40.69-77.3-23.05-13.31-48.16-4.32-73.82 1.12a69.46 69.46 0 0 1-3.08.79c-1.18.3-2.38.57-3.57.81l-2.75.56-1.09.19a110.86 110.86 0 0 1-19.76 1.8c-.66 0-1.31-.04-1.97-.05l-.97-.02c-1.06-.02-2.13-.04-3.18-.11a126 126 0 0 1-9.49-.79c-30.68-3.76-61.04-19.48-88.45-3.66-28.59 16.51-32.46 56.48-40.7 77.3-9.45 23.91-25.08 42.67-47.81 55.79-52.95 30.57-120.65 12.43-151.22-40.52-30.57-52.94-12.44-120.63 40.51-151.19h.01Z"/><path stroke="#FFFBEB" stroke-miterlimit="10" stroke-width=".81" d="M1772.09 1164.22c22.26-12.86 47.15-16.52 70.74-13.03 24.14 3.57 52.39 21.49 84.1 3.18 25.57-14.76 29.29-43.3 36-65.33a107.72 107.72 0 0 1 30.71-50.37c15.27-15.54 34.29-32.46 34.29-59.4 0-36.62-29.65-52.12-44.82-71.25-14.81-18.68-24.08-42.08-24.08-67.8 0-59.35 48.11-107.48 107.48-107.48 59.38 0 107.49 48.11 107.49 107.49 0 25.46-8.2 47.74-23.69 67.28-13.52 17.04-45.25 39.7-45.25 71.74 0 30.02 26.64 47.77 44.72 70.91a124.63 124.63 0 0 1 16.58 27.71c9.84 22.5 9.89 58.59 39.78 75.84 31.7 18.3 59.95.39 84.09-3.19 23.59-3.49 48.48.18 70.74 13.03 51.41 29.68 69.01 95.41 39.34 146.82-29.68 51.41-95.41 69.01-146.82 39.33-22.06-12.74-37.23-30.96-46.41-54.16-8.01-20.22-11.76-59.02-39.51-75.05-22.38-12.92-46.77-4.18-71.67 1.09-.77.22-1.54.42-2.31.61l-.68.17a125.3 125.3 0 0 1-6.13 1.33l-1.06.19a108.25 108.25 0 0 1-19.18 1.74c-.65 0-1.28-.04-1.92-.05l-.93-.02a112.95 112.95 0 0 1-12.3-.88c-29.79-3.65-59.27-18.92-85.88-3.55-27.77 16.02-31.51 54.84-39.52 75.05-9.18 23.21-24.35 41.41-46.41 54.16-51.41 29.68-117.14 12.06-146.81-39.33-29.68-51.41-12.08-117.13 39.33-146.8l-.01.02Z"/><path stroke="#FFFBEB" stroke-miterlimit="10" stroke-width=".81" d="M1789.24 1159.63c21.62-12.48 45.78-16.04 68.68-12.65 23.45 3.47 50.87 20.87 81.65 3.09 24.84-14.33 28.45-42.04 34.96-63.43a104.66 104.66 0 0 1 29.82-48.9c14.83-15.08 33.3-31.51 33.3-57.66 0-35.56-28.78-50.6-43.51-69.18-14.38-18.14-23.38-40.86-23.38-65.82 0-57.63 46.71-104.36 104.35-104.36 57.64 0 104.35 46.72 104.35 104.36 0 24.73-7.95 46.34-23 65.33-13.11 16.54-43.93 38.54-43.93 69.66 0 29.14 25.87 46.38 43.41 68.84a120.43 120.43 0 0 1 16.1 26.89c9.55 21.84 9.6 56.88 38.62 73.62 30.79 17.78 58.21.38 81.66-3.09 22.9-3.38 47.06.17 68.68 12.65 49.9 28.81 66.99 92.63 38.18 142.55-28.8 49.91-92.62 67-142.54 38.19-21.41-12.37-36.15-30.07-45.06-52.58-7.77-19.63-11.41-57.31-38.36-72.87-21.72-12.55-45.4-4.08-69.57 1.05l-2.25.6-.66.15a98.8 98.8 0 0 1-6.99 1.48 104.87 104.87 0 0 1-18.63 1.7c-.62 0-1.23-.04-1.86-.06l-.91-.02c-1-.02-2.01-.03-3-.09-2.99-.14-5.98-.38-8.94-.75-28.92-3.55-57.53-18.37-83.38-3.45-26.94 15.56-30.58 53.24-38.36 72.87-8.91 22.54-23.64 40.21-45.06 52.58-49.91 28.81-113.72 11.71-142.54-38.19-28.81-49.9-11.72-113.7 38.19-142.51h-.02Z"/><path stroke="#FFFBEB" stroke-miterlimit="10" stroke-width=".81" d="M1805.9 1155.17c20.98-12.13 44.45-15.57 66.68-12.29 22.76 3.37 49.39 20.26 79.27 3 24.1-13.92 27.62-40.81 33.94-61.58a101.3 101.3 0 0 1 9.93-23.64c5.25-9.1 11.7-17.06 19.03-23.83 14.39-14.64 32.33-30.6 32.33-55.98 0-34.52-27.96-49.13-42.24-67.16-13.96-17.61-22.7-39.66-22.7-63.9 0-55.95 45.35-101.31 101.31-101.31 55.95 0 101.3 45.35 101.3 101.3 0 24.01-7.72 45-22.32 63.43-12.74 16.06-42.66 37.41-42.66 67.63 0 28.29 25.12 45.03 42.15 66.84 6.39 8 11.57 16.86 15.63 26.11 9.27 21.21 9.32 55.22 37.49 71.49 29.89 17.26 56.52.37 79.28-3.01 22.23-3.29 45.69.17 66.68 12.29 48.45 27.98 65.05 89.93 37.07 138.39-27.97 48.46-89.92 65.06-138.38 37.08-20.79-12.01-35.1-29.19-43.75-51.05-7.55-19.06-11.08-55.64-37.25-70.74-21.09-12.18-44.08-3.96-67.55 1.02-.73.2-1.44.39-2.17.57-.22.07-.44.11-.65.16a123.32 123.32 0 0 1-5.78 1.26l-1.01.18a101.66 101.66 0 0 1-18.08 1.64c-.61 0-1.21-.03-1.81-.05l-.88-.02c-.97-.03-1.96-.04-2.92-.1-2.91-.13-5.79-.37-8.67-.73-28.08-3.44-55.86-17.83-80.96-3.34-26.16 15.1-29.69 51.69-37.25 70.74-8.65 21.89-22.96 39.05-43.75 51.06-48.46 27.97-110.41 11.36-138.38-37.09-27.97-48.44-11.38-110.39 37.08-138.36l-.01-.01Z"/><path stroke="#FFFBEB" stroke-miterlimit="10" stroke-width=".81" d="M1822.08 1150.84c20.37-11.76 43.15-15.11 64.73-11.93 22.09 3.27 47.95 19.67 76.97 2.91 23.41-13.51 26.81-39.63 32.95-59.79a99 99 0 0 1 28.09-46.1c13.98-14.22 31.39-29.7 31.39-54.35 0-33.52-27.13-47.7-41.01-65.2-13.56-17.1-22.04-38.51-22.04-62.05 0-54.32 44.03-98.36 98.36-98.36 54.32 0 98.35 44.03 98.35 98.36 0 23.31-7.5 43.7-21.68 61.58-12.36 15.59-41.4 36.32-41.4 65.66 0 27.46 24.38 43.72 40.91 64.89a114.13 114.13 0 0 1 15.18 25.35c9 20.59 9.05 53.61 36.4 69.4 29.02 16.76 54.87.36 76.97-2.9 21.59-3.2 44.37.16 64.74 11.93 47.04 27.16 63.15 87.31 35.99 134.36-27.15 47.04-87.31 63.16-134.35 36-20.19-11.67-34.07-28.34-42.48-49.57-7.33-18.5-10.76-54.02-36.16-68.68-20.47-11.83-42.79-3.84-65.58.99-.71.2-1.41.38-2.12.55-.21.05-.41.11-.62.15a85.57 85.57 0 0 1-5.62 1.22l-.97.17a98.59 98.59 0 0 1-17.55 1.6c-.6 0-1.17-.03-1.76-.04l-.86-.02c-.95-.02-1.89-.03-2.83-.1-2.82-.12-5.63-.36-8.43-.71-27.26-3.34-54.23-17.31-78.6-3.24-25.4 14.67-28.83 50.18-36.16 68.68-8.39 21.24-22.29 37.9-42.48 49.57-47.04 27.16-107.2 11.04-134.35-36-27.16-47.03-11.06-107.18 36-134.34l.02.01Z"/><path stroke="#FFFBEB" stroke-miterlimit="10" stroke-width=".81" d="M1837.77 1146.64c19.78-11.42 41.89-14.68 62.85-11.58 21.45 3.17 46.56 19.1 74.73 2.82 22.72-13.11 26.03-38.47 31.99-58.04a96.46 96.46 0 0 1 27.29-44.76c13.57-13.8 30.47-28.84 30.47-52.76 0-32.55-26.35-46.3-39.82-63.31-13.16-16.6-21.4-37.39-21.4-60.23 0-52.74 42.75-95.5 95.49-95.5a95.49 95.49 0 0 1 95.49 95.5c0 22.63-7.29 42.4-21.04 59.77-12.01 15.14-40.2 35.26-40.2 63.75 0 26.67 23.67 42.44 39.73 63a110.27 110.27 0 0 1 14.73 24.62c8.74 19.98 8.79 52.06 35.35 67.38 28.17 16.27 53.27.35 74.72-2.82 20.97-3.1 43.08.16 62.86 11.58 45.67 26.37 61.31 84.77 34.95 130.45a95.48 95.48 0 0 1-130.44 34.95c-19.6-11.32-33.09-27.51-41.25-48.12-7.11-17.97-10.45-52.45-35.11-66.68-19.88-11.48-41.55-3.73-63.68.96-.68.19-1.36.37-2.05.54l-.6.15c-1.03.25-2.05.49-3.09.7l-2.37.49-.94.17a96.62 96.62 0 0 1-17.05 1.54c-.57 0-1.13-.03-1.7-.04l-.83-.02c-.92-.02-1.84-.03-2.75-.08a106.1 106.1 0 0 1-8.18-.69c-26.47-3.25-52.66-16.81-76.3-3.15-24.67 14.23-28 48.71-35.11 66.68-8.16 20.62-21.64 36.81-41.25 48.12-45.68 26.37-104.08 10.72-130.44-34.95-26.37-45.67-10.72-104.06 34.95-130.43v-.01Z"/><path stroke="#FFFBEB" stroke-miterlimit="10" stroke-width=".81" d="M1853.02 1142.57c19.21-11.1 40.68-14.25 61.02-11.24 20.83 3.07 45.19 18.54 72.55 2.75 22.06-12.74 25.28-37.36 31.06-56.35a93.73 93.73 0 0 1 9.09-21.65 92.52 92.52 0 0 1 17.41-21.81c13.16-13.4 29.58-28 29.58-51.23 0-31.6-25.58-44.96-38.66-61.46-12.77-16.11-20.77-36.3-20.77-58.48a92.7 92.7 0 0 1 92.71-92.7 92.7 92.7 0 0 1 92.71 92.7c0 21.98-7.07 41.17-20.44 58.04-11.65 14.7-39.02 34.24-39.02 61.89 0 25.89 22.98 41.2 38.57 61.16a107 107 0 0 1 14.3 23.9c8.48 19.4 8.52 50.53 34.3 65.42 27.35 15.79 51.72.33 72.55-2.75 20.35-3.01 41.82.14 61.03 11.24 44.34 25.59 59.53 82.3 33.92 126.65a92.7 92.7 0 0 1-126.64 33.93c-19.03-10.99-32.12-26.72-40.04-46.73-6.91-17.44-10.14-50.91-34.09-64.74-19.3-11.14-40.33-3.61-61.81.95a52.93 52.93 0 0 1-2.58.65 76.63 76.63 0 0 1-6.21 1.31 92.03 92.03 0 0 1-16.55 1.5c-.56 0-1.1-.03-1.66-.04l-.81-.02c-.88-.02-1.78-.03-2.66-.08-2.65-.12-5.31-.34-7.94-.67-25.7-3.15-51.13-16.32-74.09-3.06-23.94 13.83-27.18 47.3-34.08 64.74-7.92 20.02-21.02 35.73-40.04 46.73a92.74 92.74 0 0 1-126.65-33.93 92.7 92.7 0 0 1 33.93-126.63l.01.01Z"/><path stroke="#FFFBEB" stroke-miterlimit="10" stroke-width=".81" d="M1867.82 1138.61c18.64-10.76 39.49-13.83 59.24-10.91 20.22 2.99 43.88 18 70.44 2.66 21.41-12.36 24.53-36.26 30.15-54.71a90.57 90.57 0 0 1 25.72-42.19c12.78-13 28.72-27.18 28.72-49.74 0-30.67-24.83-43.64-37.53-59.67-12.41-15.64-20.17-35.24-20.17-56.77a90.01 90.01 0 0 1 90.01-90.01 90 90 0 0 1 90.01 90.01c0 21.33-6.86 39.98-19.84 56.35-11.31 14.27-37.89 33.24-37.89 60.08 0 25.14 22.31 40.01 37.45 59.39a104.13 104.13 0 0 1 13.88 23.2c8.24 18.84 8.28 49.07 33.32 63.51 26.55 15.34 50.21.33 70.43-2.66 19.76-2.92 40.6.15 59.25 10.91a90.02 90.02 0 0 1 32.94 122.96 90 90 0 0 1-122.95 32.95c-18.48-10.67-31.19-25.94-38.88-45.36-6.71-16.94-9.85-49.44-33.09-62.86-18.74-10.82-39.16-3.51-60.02.91-.64.18-1.29.35-1.93.51l-.58.14c-.96.24-1.93.46-2.9.66l-2.24.46-.88.16a90.53 90.53 0 0 1-16.07 1.46c-.54 0-1.07-.04-1.61-.05l-.78-.02c-.87-.02-1.73-.03-2.59-.08a99.33 99.33 0 0 1-7.71-.65c-24.95-3.05-49.63-15.84-71.92-2.97-23.25 13.42-26.39 45.92-33.1 62.86-7.68 19.43-20.4 34.69-38.87 45.36a90.02 90.02 0 0 1-122.96-32.95 90 90 0 0 1 32.95-122.94Z"/></svg>