<svg width="256" height="256" viewBox="0 0 256 256" fill="none" xmlns="http://www.w3.org/2000/svg">
<rect width="256" height="256" fill="url(#paint0_radial_17_554)"/>
<path d="M195.043 115.231C198.862 106.013 194.484 95.4457 185.263 91.6276C176.042 87.8096 165.471 92.1868 161.651 101.404C157.832 110.622 162.211 121.19 171.432 125.008C180.652 128.826 191.224 124.449 195.043 115.231Z" fill="#FFFBEB"/>
<path d="M77.2515 126.373C87.2321 126.373 95.3229 118.285 95.3229 108.307C95.3229 98.3303 87.2321 90.2423 77.2515 90.2423C67.2709 90.2423 59.18 98.3303 59.18 108.307C59.18 118.285 67.2709 126.373 77.2515 126.373Z" fill="#FFFBEB"/>
<path d="M127.532 214C137.513 214 145.603 205.912 145.603 195.935C145.603 185.958 137.513 177.87 127.532 177.87C117.551 177.87 109.461 185.958 109.461 195.935C109.461 205.912 117.551 214 127.532 214Z" fill="#FFFBEB"/>
<path d="M201.537 149.75C195.981 146.531 189.771 145.624 183.877 146.507C177.849 147.39 170.792 151.867 162.864 147.293C156.497 143.603 155.541 136.476 153.871 130.995C153.265 128.853 152.418 126.736 151.256 124.715C149.864 122.319 148.17 120.202 146.209 118.411C142.396 114.527 137.627 110.304 137.627 103.588C137.627 94.4409 145.035 90.569 148.823 85.8016C152.515 81.1069 154.815 75.2747 154.815 68.8376C154.815 54.0152 142.795 42 127.968 42C113.14 42 101.121 54.0152 101.121 68.8376C101.121 75.2021 103.166 80.756 107.052 85.6443C110.429 89.9035 118.345 95.542 118.345 103.552C118.345 111.054 111.688 115.471 107.173 121.242C105.466 123.36 104.111 125.719 103.045 128.151C100.588 133.766 100.588 142.78 93.1079 147.075C85.1918 151.649 78.123 147.172 72.0951 146.289C66.2004 145.406 59.9789 146.325 54.4352 149.532C41.5806 156.997 37.1868 173.393 44.6066 186.231C52.0265 199.069 68.4518 203.473 81.2942 196.032C86.8137 192.849 90.6023 188.312 92.9021 182.504C94.8872 177.458 95.8313 167.778 102.779 163.773C108.359 160.555 114.447 162.733 120.693 164.052C120.887 164.112 121.068 164.148 121.262 164.209C121.323 164.209 121.383 164.245 121.419 164.245C121.698 164.306 121.988 164.366 122.303 164.439C122.521 164.475 122.739 164.536 122.969 164.56C123.066 164.56 123.162 164.596 123.223 164.596C124.772 164.874 126.382 165.032 128.016 165.032H128.706C128.96 165.032 129.215 165.032 129.493 164.995C130.255 164.959 131.042 164.899 131.793 164.802C139.237 163.882 146.584 160.071 153.241 163.919C160.177 167.924 161.133 177.604 163.118 182.649C165.418 188.457 169.207 192.995 174.726 196.177C187.569 203.582 203.994 199.178 211.414 186.376C218.821 173.574 214.379 157.143 201.537 149.737V149.75Z" fill="#FFFBEB"/>
<defs>
<radialGradient id="paint0_radial_17_554" cx="0" cy="0" r="1" gradientUnits="userSpaceOnUse" gradientTransform="rotate(45) scale(362.039)">
<stop stop-color="#00B18C"/>
<stop offset="0.420992" stop-color="#151515"/>
<stop offset="0.703954" stop-color="#151515"/>
<stop offset="1" stop-color="#FF4A5F"/>
</radialGradient>
</defs>
</svg>
